<svg width="43" height="58" viewBox="0 0 43 58" fill="none" xmlns="http://www.w3.org/2000/svg">
<path d="M39.1401 31.6287H39.1551C39.1551 31.6287 33.5011 39.4516 28.7469 45.2658C24.6376 50.2877 23.4379 54.5882 23.0929 56.6677C22.9579 57.4316 22.2981 57.9974 21.5032 57.9974C20.7084 57.9974 20.0485 57.4316 19.9135 56.6677C19.5686 54.5882 18.3688 50.2877 14.2595 45.2658C13.6296 44.4877 12.9847 43.6814 12.3398 42.8609L27.8621 25.4609L40.3548 11.4844C41.7346 14.2146 42.4995 17.2702 42.4995 20.5097C42.4995 24.6121 41.2547 28.4175 39.1401 31.6287Z" fill="#F87A08"/>
<path d="M27.8557 25.4649L12.3334 42.8649C8.10418 37.5176 3.84494 31.6327 3.84494 31.6327H3.85994C3.41002 30.9537 3.00509 30.2605 2.66016 29.539L15.1379 15.5625C13.9531 16.9064 13.2483 18.6322 13.2483 20.5137C13.2483 24.8142 16.9376 28.2942 21.4968 28.2942C24.0613 28.2942 26.3559 27.1908 27.8557 25.4649Z" fill="#F87A08"/>
<path d="M28.0972 1.04683L15.2445 15.4478L5.40625 7.35608C9.24556 2.85755 15.0345 0 21.4984 0C23.808 0 26.0276 0.367804 28.0972 1.04683Z" fill="#F87A08"/>
<path d="M15.2424 15.4432L15.1374 15.5564L2.65961 29.533C1.27986 26.8027 0.5 23.7471 0.5 20.5076C0.5 15.4998 2.34467 10.9023 5.40413 7.35156L15.2424 15.4432Z" fill="#F87A08"/>
<path d="M27.8505 25.4634C29.0353 24.1195 29.7402 22.3936 29.7402 20.5122C29.7402 16.2117 26.0509 12.7317 21.4917 12.7317C18.9271 12.7317 16.6325 13.8351 15.1328 15.561L28.0905 1.04688C33.4745 2.77272 37.8838 6.57808 40.3433 11.4868L27.8505 25.4634Z" fill="#F87A08"/>
<g clip-path="url(#clip0_4073_42517)">
<path d="M21.5 3.375C31.2337 3.37517 39.125 11.2663 39.125 21C39.1248 30.7337 31.2337 38.625 21.5 38.625C11.7663 38.6248 3.875 30.7337 3.875 21C3.87517 11.2663 11.7663 3.375 21.5 3.375Z" fill="#F87A08" stroke="white" stroke-width="0.75"/>
<path d="M24.6443 17.9675C24.4909 17.7666 24.3135 17.5834 24.1145 17.4212C23.9636 17.2963 23.7982 17.1829 23.6214 17.0827L22.0946 16.4096L21.649 16.2119L21.6718 16.2024C21.611 16.1758 21.3416 16.0579 21.3416 16.0579C20.749 15.798 20.0772 15.504 19.2875 15.1611L19.1918 15.1186C18.352 14.744 17.4901 14.5178 16.6997 14.4652C16.5876 14.4569 16.4678 14.4531 16.3423 14.4531C15.8644 14.4531 15.4144 14.5178 15.0037 14.6458C14.4377 14.8207 13.9288 15.078 13.4509 15.4298L13.4287 15.4463L13.4034 15.4634C12.6828 15.9596 12.1244 16.6429 11.7441 17.4915L7.91603 26.17C7.81208 26.4039 7.80575 26.6631 7.89701 26.9014C7.98891 27.1442 8.16637 27.3318 8.41038 27.444C8.51686 27.489 8.61954 27.5149 8.72601 27.5219C8.75073 27.5238 8.77228 27.5251 8.79446 27.5251C9.16903 27.5251 9.52205 27.2975 9.6729 26.961L13.5016 18.2819C13.8375 17.527 14.439 16.9433 15.2433 16.5922L15.3232 16.5592C15.7098 16.4115 16.1091 16.3368 16.5109 16.3368C16.5958 16.3368 16.6611 16.3387 16.7181 16.3431C17.0895 16.3665 17.4565 16.4572 17.8121 16.6144L19.5898 17.4389L19.3845 17.6557C18.7494 18.325 18.3704 19.2262 18.3704 20.0666C18.3704 20.4095 18.4192 20.7422 18.5162 21.0579C18.8344 22.1398 19.6621 23.003 20.73 23.3668C21.09 23.4916 21.4703 23.555 21.8588 23.555C23.7253 23.555 25.2553 22.0941 25.3415 20.2251C25.3447 20.1782 25.3466 20.1262 25.3466 20.0666C25.3466 19.3035 25.1038 18.5778 24.6456 17.9681L24.6443 17.9675ZM21.8423 21.6289C21.0057 21.6289 20.3257 20.9489 20.3257 20.1129C20.3257 19.2769 21.0057 18.5962 21.8423 18.5962C22.6789 18.5962 23.3577 19.2763 23.3577 20.1129C23.3577 20.9495 22.6777 21.6289 21.8423 21.6289Z" fill="white"/>
<path d="M24.6443 17.9675C24.4909 17.7666 24.3135 17.5834 24.1145 17.4212C23.9636 17.2963 23.7982 17.1829 23.6214 17.0827L22.0946 16.4096L21.649 16.2119L21.6718 16.2024C21.611 16.1758 21.3416 16.0579 21.3416 16.0579C20.749 15.798 20.0772 15.504 19.2875 15.1611L19.1918 15.1186C18.352 14.744 17.4901 14.5178 16.6997 14.4652C16.5876 14.4569 16.4678 14.4531 16.3423 14.4531C15.8644 14.4531 15.4144 14.5178 15.0037 14.6458C14.4377 14.8207 13.9288 15.078 13.4509 15.4298L13.4287 15.4463L13.4034 15.4634C12.6828 15.9596 12.1244 16.6429 11.7441 17.4915L7.91603 26.17C7.81208 26.4039 7.80575 26.6631 7.89701 26.9014C7.98891 27.1442 8.16637 27.3318 8.41038 27.444C8.51686 27.489 8.61954 27.5149 8.72601 27.5219C8.75073 27.5238 8.77228 27.5251 8.79446 27.5251C9.16903 27.5251 9.52205 27.2975 9.6729 26.961L13.5016 18.2819C13.8375 17.527 14.439 16.9433 15.2433 16.5922L15.3232 16.5592C15.7098 16.4115 16.1091 16.3368 16.5109 16.3368C16.5958 16.3368 16.6611 16.3387 16.7181 16.3431C17.0895 16.3665 17.4565 16.4572 17.8121 16.6144L19.5898 17.4389L19.3845 17.6557C18.7494 18.325 18.3704 19.2262 18.3704 20.0666C18.3704 20.4095 18.4192 20.7422 18.5162 21.0579C18.8344 22.1398 19.6621 23.003 20.73 23.3668C21.09 23.4916 21.4703 23.555 21.8588 23.555C23.7253 23.555 25.2553 22.0941 25.3415 20.2251C25.3447 20.1782 25.3466 20.1262 25.3466 20.0666C25.3466 19.3035 25.1038 18.5778 24.6456 17.9681L24.6443 17.9675ZM21.8423 21.6289C21.0057 21.6289 20.3257 20.9489 20.3257 20.1129C20.3257 19.2769 21.0057 18.5962 21.8423 18.5962C22.6789 18.5962 23.3577 19.2763 23.3577 20.1129C23.3577 20.9495 22.6777 21.6289 21.8423 21.6289Z" fill="white"/>
<path d="M35.078 26.9875C34.9678 27.2227 34.7738 27.4008 34.5324 27.487L34.5273 27.4889C34.4278 27.5282 34.3156 27.5485 34.2028 27.5485C33.801 27.5485 33.4372 27.2956 33.2996 26.9185L30.0552 18.6272C29.7675 17.8489 29.206 17.2221 28.4334 16.8184L28.3484 16.7784C27.9023 16.5712 27.4916 16.4761 27.0149 16.4679L26.9858 16.466H26.9807C26.4674 16.466 25.5743 16.6726 24.8753 16.8577C24.7504 16.7442 24.6173 16.6365 24.4779 16.5363C24.2326 16.3608 23.9613 16.2055 23.6736 16.0775L23.2223 15.8765C23.1887 15.8613 23.1545 15.8461 23.1184 15.8303C23.0671 15.8075 23.0132 15.784 22.9574 15.7587C22.9035 15.7352 22.8484 15.7111 22.792 15.6858C23.8232 15.3118 25.9451 14.5938 27.0251 14.5938C27.065 14.5938 27.1043 14.5957 27.1417 14.5963C27.8313 14.6299 28.2553 14.6825 28.7921 14.8878C29.3397 15.0982 29.8302 15.3866 30.2904 15.772L30.3316 15.8049C31.0199 16.3494 31.5332 17.0693 31.8584 17.949L35.1053 26.2466C35.194 26.4964 35.1845 26.7524 35.078 26.9863V26.9875Z" fill="white"/>
<path d="M35.078 26.9875C34.9678 27.2227 34.7738 27.4008 34.5324 27.487L34.5273 27.4889C34.4278 27.5282 34.3156 27.5485 34.2028 27.5485C33.801 27.5485 33.4372 27.2956 33.2996 26.9185L30.0552 18.6272C29.7675 17.8489 29.206 17.2221 28.4334 16.8184L28.3484 16.7784C27.9023 16.5712 27.4916 16.4761 27.0149 16.4679L26.9858 16.466H26.9807C26.4674 16.466 25.5743 16.6726 24.8753 16.8577C24.7504 16.7442 24.6173 16.6365 24.4779 16.5363C24.2326 16.3608 23.9613 16.2055 23.6736 16.0775L23.2223 15.8765C23.1887 15.8613 23.1545 15.8461 23.1184 15.8303C23.0671 15.8075 23.0132 15.784 22.9574 15.7587C22.9035 15.7352 22.8484 15.7111 22.792 15.6858C23.8232 15.3118 25.9451 14.5938 27.0251 14.5938C27.065 14.5938 27.1043 14.5957 27.1417 14.5963C27.8313 14.6299 28.2553 14.6825 28.7921 14.8878C29.3397 15.0982 29.8302 15.3866 30.2904 15.772L30.3316 15.8049C31.0199 16.3494 31.5332 17.0693 31.8584 17.949L35.1053 26.2466C35.194 26.4964 35.1845 26.7524 35.078 26.9863V26.9875Z" fill="white"/>
</g>
<defs>
<clipPath id="clip0_4073_42517">
<rect width="36" height="36" fill="white" transform="translate(3.5 3)"/>
</clipPath>
</defs>
</svg>
