<svg width="43" height="58" viewBox="0 0 43 58" fill="none" xmlns="http://www.w3.org/2000/svg">
<path d="M39.1405 31.6287H39.1555C39.1555 31.6287 33.5016 39.4516 28.7474 45.2658C24.6381 50.2877 23.4384 54.5882 23.0934 56.6677C22.9584 57.4316 22.2986 57.9974 21.5037 57.9974C20.7088 57.9974 20.049 57.4316 19.914 56.6677C19.569 54.5882 18.3693 50.2877 14.26 45.2658C13.6301 44.4877 12.9852 43.6814 12.3403 42.8609L27.8626 25.4609L40.3553 11.4844C41.7351 14.2146 42.4999 17.2702 42.4999 20.5097C42.4999 24.6121 41.2552 28.4175 39.1405 31.6287Z" fill="#999999"/>
<path d="M27.8561 25.4649L12.3339 42.8649C8.10467 37.5176 3.84543 31.6327 3.84543 31.6327H3.86043C3.41051 30.9537 3.00558 30.2605 2.66064 29.539L15.1384 15.5625C13.9536 16.9064 13.2488 18.6322 13.2488 20.5137C13.2488 24.8142 16.9381 28.2942 21.4973 28.2942C24.0618 28.2942 26.3564 27.1908 27.8561 25.4649Z" fill="#999999"/>
<path d="M28.0977 1.04683L15.245 15.4478L5.40674 7.35608C9.24605 2.85755 15.035 0 21.4989 0C23.8085 0 26.0281 0.367804 28.0977 1.04683Z" fill="#999999"/>
<path d="M15.2429 15.4432L15.1379 15.5564L2.6601 29.533C1.28035 26.8027 0.500488 23.7471 0.500488 20.5076C0.500488 15.4998 2.34516 10.9023 5.40461 7.35156L15.2429 15.4432Z" fill="#999999"/>
<path d="M27.851 25.4634C29.0358 24.1195 29.7407 22.3936 29.7407 20.5122C29.7407 16.2117 26.0514 12.7317 21.4922 12.7317C18.9276 12.7317 16.633 13.8351 15.1333 15.561L28.091 1.04688C33.475 2.77272 37.8842 6.57808 40.3438 11.4868L27.851 25.4634Z" fill="#999999"/>
<g clip-path="url(#clip0_4078_46082)">
<path d="M21.5005 3.375C31.2342 3.37517 39.1255 11.2663 39.1255 21C39.1253 30.7337 31.2342 38.625 21.5005 38.625C11.7668 38.6248 3.87549 30.7337 3.87549 21C3.87566 11.2663 11.7668 3.375 21.5005 3.375Z" fill="#999999" stroke="white" stroke-width="0.75"/>
<path d="M24.6448 17.9675C24.4914 17.7666 24.314 17.5834 24.115 17.4212C23.9641 17.2963 23.7987 17.1829 23.6219 17.0827L22.0951 16.4096L21.6495 16.2119L21.6723 16.2024C21.6115 16.1758 21.3421 16.0579 21.3421 16.0579C20.7495 15.798 20.0777 15.504 19.288 15.1611L19.1923 15.1186C18.3525 14.744 17.4906 14.5178 16.7002 14.4652C16.5881 14.4569 16.4683 14.4531 16.3428 14.4531C15.8649 14.4531 15.4149 14.5178 15.0042 14.6458C14.4382 14.8207 13.9293 15.078 13.4514 15.4298L13.4292 15.4463L13.4039 15.4634C12.6833 15.9596 12.1249 16.6429 11.7446 17.4915L7.91651 26.17C7.81257 26.4039 7.80623 26.6631 7.8975 26.9014C7.9894 27.1442 8.16686 27.3318 8.41087 27.444C8.51735 27.489 8.62002 27.5149 8.7265 27.5219C8.75122 27.5238 8.77277 27.5251 8.79495 27.5251C9.16952 27.5251 9.52254 27.2975 9.67339 26.961L13.5021 18.2819C13.838 17.527 14.4395 16.9433 15.2438 16.5922L15.3236 16.5592C15.7103 16.4115 16.1095 16.3368 16.5114 16.3368C16.5963 16.3368 16.6616 16.3387 16.7186 16.3431C17.09 16.3665 17.457 16.4572 17.8125 16.6144L19.5903 17.4389L19.385 17.6557C18.7499 18.325 18.3709 19.2262 18.3709 20.0666C18.3709 20.4095 18.4197 20.7422 18.5167 21.0579C18.8348 22.1398 19.6626 23.003 20.7305 23.3668C21.0905 23.4916 21.4708 23.555 21.8593 23.555C23.7258 23.555 25.2558 22.0941 25.342 20.2251C25.3452 20.1782 25.3471 20.1262 25.3471 20.0666C25.3471 19.3035 25.1043 18.5778 24.6461 17.9681L24.6448 17.9675ZM21.8428 21.6289C21.0062 21.6289 20.3262 20.9489 20.3262 20.1129C20.3262 19.2769 21.0062 18.5962 21.8428 18.5962C22.6794 18.5962 23.3582 19.2763 23.3582 20.1129C23.3582 20.9495 22.6782 21.6289 21.8428 21.6289Z" fill="white"/>
<path d="M24.6448 17.9675C24.4914 17.7666 24.314 17.5834 24.115 17.4212C23.9641 17.2963 23.7987 17.1829 23.6219 17.0827L22.0951 16.4096L21.6495 16.2119L21.6723 16.2024C21.6115 16.1758 21.3421 16.0579 21.3421 16.0579C20.7495 15.798 20.0777 15.504 19.288 15.1611L19.1923 15.1186C18.3525 14.744 17.4906 14.5178 16.7002 14.4652C16.5881 14.4569 16.4683 14.4531 16.3428 14.4531C15.8649 14.4531 15.4149 14.5178 15.0042 14.6458C14.4382 14.8207 13.9293 15.078 13.4514 15.4298L13.4292 15.4463L13.4039 15.4634C12.6833 15.9596 12.1249 16.6429 11.7446 17.4915L7.91651 26.17C7.81257 26.4039 7.80623 26.6631 7.8975 26.9014C7.9894 27.1442 8.16686 27.3318 8.41087 27.444C8.51735 27.489 8.62002 27.5149 8.7265 27.5219C8.75122 27.5238 8.77277 27.5251 8.79495 27.5251C9.16952 27.5251 9.52254 27.2975 9.67339 26.961L13.5021 18.2819C13.838 17.527 14.4395 16.9433 15.2438 16.5922L15.3236 16.5592C15.7103 16.4115 16.1095 16.3368 16.5114 16.3368C16.5963 16.3368 16.6616 16.3387 16.7186 16.3431C17.09 16.3665 17.457 16.4572 17.8125 16.6144L19.5903 17.4389L19.385 17.6557C18.7499 18.325 18.3709 19.2262 18.3709 20.0666C18.3709 20.4095 18.4197 20.7422 18.5167 21.0579C18.8348 22.1398 19.6626 23.003 20.7305 23.3668C21.0905 23.4916 21.4708 23.555 21.8593 23.555C23.7258 23.555 25.2558 22.0941 25.342 20.2251C25.3452 20.1782 25.3471 20.1262 25.3471 20.0666C25.3471 19.3035 25.1043 18.5778 24.6461 17.9681L24.6448 17.9675ZM21.8428 21.6289C21.0062 21.6289 20.3262 20.9489 20.3262 20.1129C20.3262 19.2769 21.0062 18.5962 21.8428 18.5962C22.6794 18.5962 23.3582 19.2763 23.3582 20.1129C23.3582 20.9495 22.6782 21.6289 21.8428 21.6289Z" fill="white"/>
<path d="M35.079 26.9875C34.9687 27.2227 34.7748 27.4008 34.5333 27.487L34.5283 27.4889C34.4288 27.5282 34.3166 27.5485 34.2038 27.5485C33.8019 27.5485 33.4381 27.2956 33.3006 26.9185L30.0562 18.6272C29.7685 17.8489 29.2069 17.2221 28.4344 16.8184L28.3494 16.7784C27.9032 16.5712 27.4925 16.4761 27.0159 16.4679L26.9868 16.466H26.9817C26.4683 16.466 25.5753 16.6726 24.8762 16.8577C24.7514 16.7442 24.6183 16.6365 24.4789 16.5363C24.2336 16.3608 23.9623 16.2055 23.6746 16.0775L23.2233 15.8765C23.1897 15.8613 23.1555 15.8461 23.1194 15.8303C23.068 15.8075 23.0142 15.784 22.9584 15.7587C22.9045 15.7352 22.8494 15.7111 22.793 15.6858C23.8241 15.3118 25.9461 14.5938 27.0261 14.5938C27.066 14.5938 27.1053 14.5957 27.1427 14.5963C27.8322 14.6299 28.2563 14.6825 28.7931 14.8878C29.3407 15.0982 29.8312 15.3866 30.2914 15.772L30.3326 15.8049C31.0209 16.3494 31.5342 17.0693 31.8594 17.949L35.1063 26.2466C35.195 26.4964 35.1855 26.7524 35.079 26.9863V26.9875Z" fill="white"/>
<path d="M35.079 26.9875C34.9687 27.2227 34.7748 27.4008 34.5333 27.487L34.5283 27.4889C34.4288 27.5282 34.3166 27.5485 34.2038 27.5485C33.8019 27.5485 33.4381 27.2956 33.3006 26.9185L30.0562 18.6272C29.7685 17.8489 29.2069 17.2221 28.4344 16.8184L28.3494 16.7784C27.9032 16.5712 27.4925 16.4761 27.0159 16.4679L26.9868 16.466H26.9817C26.4683 16.466 25.5753 16.6726 24.8762 16.8577C24.7514 16.7442 24.6183 16.6365 24.4789 16.5363C24.2336 16.3608 23.9623 16.2055 23.6746 16.0775L23.2233 15.8765C23.1897 15.8613 23.1555 15.8461 23.1194 15.8303C23.068 15.8075 23.0142 15.784 22.9584 15.7587C22.9045 15.7352 22.8494 15.7111 22.793 15.6858C23.8241 15.3118 25.9461 14.5938 27.0261 14.5938C27.066 14.5938 27.1053 14.5957 27.1427 14.5963C27.8322 14.6299 28.2563 14.6825 28.7931 14.8878C29.3407 15.0982 29.8312 15.3866 30.2914 15.772L30.3326 15.8049C31.0209 16.3494 31.5342 17.0693 31.8594 17.949L35.1063 26.2466C35.195 26.4964 35.1855 26.7524 35.079 26.9863V26.9875Z" fill="white"/>
</g>
<defs>
<clipPath id="clip0_4078_46082">
<rect width="36" height="36" fill="white" transform="translate(3.50049 3)"/>
</clipPath>
</defs>
</svg>
