<svg width="43" height="58" viewBox="0 0 43 58" fill="none" xmlns="http://www.w3.org/2000/svg">
<path d="M39.1405 31.6287H39.1555C39.1555 31.6287 33.5016 39.4516 28.7474 45.2658C24.6381 50.2877 23.4384 54.5882 23.0934 56.6677C22.9584 57.4316 22.2986 57.9974 21.5037 57.9974C20.7088 57.9974 20.049 57.4316 19.914 56.6677C19.569 54.5882 18.3693 50.2877 14.26 45.2658C13.6301 44.4877 12.9852 43.6814 12.3403 42.8609L27.8626 25.4609L40.3553 11.4844C41.7351 14.2146 42.4999 17.2702 42.4999 20.5097C42.4999 24.6121 41.2552 28.4175 39.1405 31.6287Z" fill="#999999"/>
<path d="M27.8561 25.4649L12.3339 42.8649C8.10467 37.5176 3.84543 31.6327 3.84543 31.6327H3.86043C3.41051 30.9537 3.00558 30.2605 2.66064 29.539L15.1384 15.5625C13.9536 16.9064 13.2488 18.6322 13.2488 20.5137C13.2488 24.8142 16.9381 28.2942 21.4973 28.2942C24.0618 28.2942 26.3564 27.1908 27.8561 25.4649Z" fill="#999999"/>
<path d="M28.0977 1.04683L15.245 15.4478L5.40674 7.35608C9.24605 2.85755 15.035 0 21.4989 0C23.8085 0 26.0281 0.367804 28.0977 1.04683Z" fill="#999999"/>
<path d="M15.2429 15.4432L15.1379 15.5564L2.6601 29.533C1.28035 26.8027 0.500488 23.7471 0.500488 20.5076C0.500488 15.4998 2.34516 10.9023 5.40461 7.35156L15.2429 15.4432Z" fill="#999999"/>
<path d="M27.851 25.4634C29.0358 24.1195 29.7407 22.3936 29.7407 20.5122C29.7407 16.2117 26.0514 12.7317 21.4922 12.7317C18.9276 12.7317 16.633 13.8351 15.1333 15.561L28.091 1.04688C33.475 2.77272 37.8842 6.57808 40.3438 11.4868L27.851 25.4634Z" fill="#999999"/>
</svg>
