<svg width="226" height="226" viewBox="0 0 226 226" fill="none" xmlns="http://www.w3.org/2000/svg">
<path d="M89.8025 2.09779C46.4133 11.2579 10.8893 46.5896 2.10657 89.1186C-0.908387 103.513 -0.646217 126.021 2.63091 139.63C7.87432 161.352 18.4922 179.28 35.7955 195.637C58.6043 217.36 86.0011 227.305 118.51 225.866C136.6 225.08 148.66 222.071 162.948 215.004C187.723 202.573 204.633 185.299 216.3 160.436C224.427 142.901 226 135.442 226 113.066C226 89.7729 224.427 82.7065 214.989 63.3395C195.719 23.8203 156.525 -0.257645 112.087 0.00405884C104.877 0.00405884 94.9148 0.920059 89.8025 2.09779ZM133.978 5.63097C210.794 20.418 248.022 109.14 204.371 173.784C195.457 187.001 187.723 194.852 174.484 203.881C156.918 215.92 135.813 222.332 113.66 222.332C62.5368 222.463 19.4098 188.964 6.56347 139.237C2.762 124.712 2.762 101.419 6.56347 86.894C17.1814 45.6736 49.2972 14.9219 91.1134 5.76183C101.6 3.40639 122.181 3.40637 133.978 5.63097Z" fill="white"/>
<path d="M106.841 66.4812C103.957 67.7898 98.7135 70.6687 95.1742 73.0241C91.5038 75.2487 87.7024 77.0807 86.6537 77.0807C85.4739 77.0807 81.2792 74.987 77.3466 72.5007C69.2194 67.2664 62.0097 66.4812 58.6015 70.2761C55.7176 73.5476 54.0135 82.0534 53.0959 98.6724C52.5715 106.655 52.0472 114.375 51.6539 115.946C51.1296 118.694 51.5229 118.955 56.1108 118.955H61.2232L62.0097 104.168C63.1894 84.8014 64.2381 77.0807 65.9422 77.0807C66.7287 77.0807 70.268 79.0436 73.9384 81.2682C83.1144 87.1568 91.2417 87.2877 99.6311 81.5299C102.908 79.3053 107.365 76.5573 109.725 75.3796L113.788 73.155L116.541 81.2682C118.114 85.7174 119.294 89.774 119.294 90.4283C119.294 91.8677 109.856 98.0181 107.496 98.0181C106.316 98.0181 102.253 95.9244 98.3203 93.438C91.3727 88.9889 84.032 87.5494 80.4927 89.9049C76.6912 92.3912 74.5938 102.86 72.7587 129.032L72.1032 139.893H77.3466H82.59V130.34C82.59 120.526 84.8185 99.1958 85.9983 98.1489C86.3915 97.7564 88.2267 98.4107 90.193 99.5884C100.942 106.262 104.088 107.44 109.2 106.786C112.084 106.393 116.148 104.823 118.245 103.252C120.343 101.682 122.309 100.635 122.44 100.897C122.702 101.028 123.62 104.954 124.537 109.272L126.11 117.385L130.174 116.207C132.271 115.684 134.369 114.899 134.631 114.506C134.893 114.245 134.238 110.45 133.189 106.131C130.567 96.4478 130.567 95.9243 133.058 94.8775C134.5 94.354 135.68 96.3169 137.646 102.729C139.088 107.571 140.267 111.889 140.267 112.543C140.267 113.067 137.646 115.161 134.5 116.993C128.077 120.657 125.979 120.395 118.114 114.506C108.545 107.44 99.6311 109.141 97.1405 118.694C95.8296 123.535 93.0769 149.707 93.0769 157.82C93.0769 161.877 93.339 162.139 97.5337 162.139H101.991L102.777 150.623C103.957 135.313 105.792 120.264 106.71 119.348C107.103 118.955 110.642 120.787 114.706 123.535C123.358 129.555 130.698 130.209 137.908 125.76C140.53 124.19 142.889 122.881 143.282 122.881C143.545 122.881 144.331 125.629 144.855 128.901C145.249 132.303 146.035 135.705 146.297 136.49C146.953 138.192 154.294 137.799 155.342 135.967C155.604 135.444 154.818 131.125 153.507 126.283C151.41 118.563 151.279 117.385 152.983 116.731C154.031 116.338 155.473 116.731 155.998 117.647C157.309 119.741 165.043 148.66 166.091 155.203C166.878 159.652 167.009 159.652 171.597 158.867C174.219 158.344 176.447 157.82 176.578 157.689C177.102 157.297 169.368 128.377 166.353 119.479C162.945 109.141 160.324 106.655 153.507 107.571C148.526 108.225 148.395 108.094 147.477 103.776C146.166 96.4478 141.972 87.8111 139.088 86.2408C137.515 85.4557 134.369 85.194 132.009 85.5865C127.814 86.3717 127.814 86.3717 125.455 78.3893C122.964 69.8835 118.376 63.9949 114.444 63.9949C113.133 63.9949 109.725 65.1726 106.841 66.4812ZM128.339 88.9889C132.14 90.2974 132.402 90.69 130.567 92.6529C129.519 93.8306 128.339 96.3169 127.814 98.2798C126.897 101.813 126.897 101.813 123.489 99.7192C121.522 98.5415 119.687 97.3638 119.425 97.1021C119.163 96.8404 119.818 95.6626 120.998 94.354C122.309 93.0455 122.833 91.606 122.44 91.0826C121.784 90.4283 122.833 87.5494 123.751 87.5494C124.013 87.5494 125.979 88.2037 128.339 88.9889ZM150.754 112.282C152.327 113.329 152.327 113.852 150.492 115.946C149.312 117.254 148.133 119.61 147.87 121.18L147.477 123.928L143.676 120.918C140.005 118.039 140.005 117.909 142.234 114.506C143.545 112.674 144.069 111.104 143.676 111.104C143.151 111.104 143.151 110.45 143.545 109.795C144.331 108.487 145.773 109.01 150.754 112.282Z" fill="white"/>
<path d="M128.339 88.9889C132.14 90.2974 132.402 90.69 130.567 92.6529C129.519 93.8306 128.339 96.3169 127.814 98.2798C126.897 101.813 126.897 101.813 123.489 99.7192C121.522 98.5415 119.687 97.3638 119.425 97.1021C119.163 96.8404 119.818 95.6626 120.998 94.354C122.309 93.0455 122.833 91.606 122.44 91.0826C121.784 90.4283 122.833 87.5494 123.751 87.5494C124.013 87.5494 125.979 88.2037 128.339 88.9889Z" fill="white"/>
<path d="M150.754 112.282C152.327 113.329 152.327 113.852 150.492 115.946C149.312 117.254 148.133 119.61 147.87 121.18L147.477 123.928L143.676 120.918C140.005 118.039 140.005 117.909 142.234 114.506C143.545 112.674 144.069 111.104 143.676 111.104C143.151 111.104 143.151 110.45 143.545 109.795C144.331 108.487 145.773 109.01 150.754 112.282Z" fill="white"/>
</svg>
