<svg width="24" height="24" viewBox="0 0 24 24" fill="none" xmlns="http://www.w3.org/2000/svg">
<path d="M12 2.625C10.1458 2.625 8.33324 3.17483 6.79153 4.20497C5.24982 5.23511 4.04821 6.69929 3.33863 8.41234C2.62906 10.1254 2.44341 12.0104 2.80514 13.829C3.16688 15.6475 4.05976 17.318 5.37088 18.6291C6.682 19.9402 8.35246 20.8331 10.171 21.1949C11.9896 21.5566 13.8746 21.3709 15.5877 20.6614C17.3007 19.9518 18.7649 18.7502 19.795 17.2085C20.8252 15.6668 21.375 13.8542 21.375 12C21.3723 9.51443 20.3837 7.13145 18.6261 5.37389C16.8686 3.61633 14.4856 2.62773 12 2.625ZM12 20.625C10.2941 20.625 8.62658 20.1192 7.20821 19.1714C5.78984 18.2237 4.68435 16.8767 4.03154 15.3006C3.37874 13.7246 3.20793 11.9904 3.54073 10.3173C3.87353 8.64426 4.69498 7.10743 5.90121 5.9012C7.10744 4.69498 8.64426 3.87352 10.3174 3.54073C11.9904 3.20793 13.7246 3.37873 15.3006 4.03154C16.8767 4.68434 18.2237 5.78983 19.1714 7.20821C20.1192 8.62658 20.625 10.2941 20.625 12C20.6225 14.2867 19.713 16.4791 18.0961 18.0961C16.4791 19.713 14.2867 20.6225 12 20.625ZM15.375 13.875C15.375 14.4717 15.138 15.044 14.716 15.466C14.294 15.8879 13.7217 16.125 13.125 16.125H12.375V17.25C12.375 17.3495 12.3355 17.4448 12.2652 17.5152C12.1948 17.5855 12.0995 17.625 12 17.625C11.9005 17.625 11.8052 17.5855 11.7348 17.5152C11.6645 17.4448 11.625 17.3495 11.625 17.25V16.125H9.75C9.65055 16.125 9.55517 16.0855 9.48484 16.0152C9.41451 15.9448 9.375 15.8495 9.375 15.75C9.375 15.6505 9.41451 15.5552 9.48484 15.4848C9.55517 15.4145 9.65055 15.375 9.75 15.375H13.125C13.5228 15.375 13.9044 15.217 14.1857 14.9357C14.467 14.6544 14.625 14.2728 14.625 13.875C14.625 13.4772 14.467 13.0956 14.1857 12.8143C13.9044 12.533 13.5228 12.375 13.125 12.375H10.875C10.2783 12.375 9.70597 12.1379 9.28401 11.716C8.86206 11.294 8.625 10.7217 8.625 10.125C8.625 9.52826 8.86206 8.95597 9.28401 8.53401C9.70597 8.11205 10.2783 7.875 10.875 7.875H11.625V6.75C11.625 6.65054 11.6645 6.55516 11.7348 6.48483C11.8052 6.41451 11.9005 6.375 12 6.375C12.0995 6.375 12.1948 6.41451 12.2652 6.48483C12.3355 6.55516 12.375 6.65054 12.375 6.75V7.875H14.25C14.3495 7.875 14.4448 7.91451 14.5152 7.98483C14.5855 8.05516 14.625 8.15054 14.625 8.25C14.625 8.34946 14.5855 8.44484 14.5152 8.51517C14.4448 8.58549 14.3495 8.625 14.25 8.625H10.875C10.4772 8.625 10.0956 8.78304 9.81434 9.06434C9.53304 9.34564 9.375 9.72718 9.375 10.125C9.375 10.5228 9.53304 10.9044 9.81434 11.1857C10.0956 11.467 10.4772 11.625 10.875 11.625H13.125C13.7217 11.625 14.294 11.8621 14.716 12.284C15.138 12.706 15.375 13.2783 15.375 13.875Z" fill="#F87A08"/>
</svg>
