<svg width="63" height="78" viewBox="0 0 63 78" fill="none" xmlns="http://www.w3.org/2000/svg">
<path d="M44.9403 25.0858H44.9518C44.9518 25.0858 40.6437 31.2902 37.0212 35.9014C33.8901 39.8843 32.9759 43.295 32.7131 44.9442C32.6102 45.5501 32.1074 45.9988 31.5018 45.9988C30.8961 45.9988 30.3933 45.5501 30.2904 44.9442C30.0276 43.295 29.1134 39.8843 25.9823 35.9014C25.5024 35.2843 25.011 34.6448 24.5196 33.9941L36.347 20.1942L45.866 9.10938C46.9173 11.2747 47.5001 13.6981 47.5001 16.2674C47.5001 19.521 46.5516 22.539 44.9403 25.0858Z" fill="#F87A08"/>
<path d="M36.343 20.1934L24.5157 33.9933C21.2932 29.7524 18.0478 25.0851 18.0478 25.0851H18.0592C17.7164 24.5466 17.4078 23.9968 17.145 23.4246L26.6526 12.3398C25.7498 13.4057 25.2127 14.7745 25.2127 16.2666C25.2127 19.6773 28.0239 22.4373 31.4978 22.4373C33.4519 22.4373 35.2003 21.5622 36.343 20.1934Z" fill="#F87A08"/>
<path d="M36.5273 0.830237L26.734 12.2516L19.2376 5.8341C22.163 2.26632 26.574 0 31.4992 0C33.259 0 34.9503 0.291705 36.5273 0.830237Z" fill="#F87A08"/>
<path d="M26.7331 12.2495L26.6531 12.3393L17.1455 23.4241C16.0942 21.2587 15.4999 18.8353 15.4999 16.2661C15.4999 12.2944 16.9055 8.64811 19.2367 5.83203L26.7331 12.2495Z" fill="#F87A08"/>
<path d="M36.343 20.1968C37.2457 19.1309 37.7828 17.7621 37.7828 16.27C37.7828 12.8593 34.9717 10.0993 31.4978 10.0993C29.5437 10.0993 27.7953 10.9744 26.6526 12.3432L36.5258 0.832031C40.6282 2.2008 43.9879 5.21883 45.862 9.11197L36.343 20.1968Z" fill="#F87A08"/>
<circle cx="31.4999" cy="16" r="11.5" fill="#F87A08" stroke="white"/>
<path d="M30.6945 11.2533C30.3719 11.3867 29.7852 11.68 29.3892 11.92C28.9785 12.1467 28.5532 12.3333 28.4359 12.3333C28.3039 12.3333 27.8346 12.12 27.3946 11.8667C26.4852 11.3333 25.6786 11.2533 25.2972 11.64C24.9746 11.9733 24.7839 12.84 24.6813 14.5333C24.6226 15.3467 24.5639 16.1333 24.5199 16.2933C24.4613 16.5733 24.5053 16.6 25.0186 16.6H25.5906L25.6786 15.0933C25.8106 13.12 25.9279 12.3333 26.1186 12.3333C26.2066 12.3333 26.6026 12.5333 27.0132 12.76C28.0399 13.36 28.9492 13.3733 29.8879 12.7867C30.2545 12.56 30.7532 12.28 31.0172 12.16L31.4718 11.9333L31.7798 12.76C31.9558 13.2133 32.0878 13.6267 32.0878 13.6933C32.0878 13.84 31.0318 14.4667 30.7679 14.4667C30.6359 14.4667 30.1812 14.2533 29.7412 14C28.9639 13.5467 28.1425 13.4 27.7466 13.64C27.3212 13.8933 27.0866 14.96 26.8812 17.6267L26.8079 18.7333H27.9812V17.76C27.9812 16.76 28.2305 14.5867 28.3625 14.48C28.4065 14.44 28.6119 14.5067 28.8319 14.6267C30.0345 15.3067 30.3865 15.4267 30.9585 15.36C31.2812 15.32 31.7358 15.16 31.9705 15C32.2052 14.84 32.4252 14.7333 32.4398 14.76C32.4692 14.7733 32.5718 15.1733 32.6745 15.6133L32.8505 16.44L33.3052 16.32C33.5398 16.2667 33.7745 16.1867 33.8038 16.1467C33.8331 16.12 33.7598 15.7333 33.6425 15.2933C33.3492 14.3067 33.3492 14.2533 33.6278 14.1467C33.7892 14.0933 33.9211 14.2933 34.1411 14.9467C34.3025 15.44 34.4345 15.88 34.4345 15.9467C34.4345 16 34.1411 16.2133 33.7892 16.4C33.0705 16.7733 32.8358 16.7467 31.9558 16.1467C30.8852 15.4267 29.8879 15.6 29.6092 16.5733C29.4625 17.0667 29.1545 19.7333 29.1545 20.56C29.1545 20.9733 29.1839 21 29.6532 21H30.1519L30.2399 19.8267C30.3719 18.2667 30.5772 16.7333 30.6799 16.64C30.7239 16.6 31.1198 16.7867 31.5745 17.0667C32.5425 17.68 33.3638 17.7467 34.1705 17.2933C34.4638 17.1333 34.7278 17 34.7718 17C34.8011 17 34.8891 17.28 34.9478 17.6133C34.9918 17.96 35.0798 18.3067 35.1091 18.3867C35.1825 18.56 36.0038 18.52 36.1211 18.3333C36.1505 18.28 36.0625 17.84 35.9158 17.3467C35.6811 16.56 35.6665 16.44 35.8571 16.3733C35.9745 16.3333 36.1358 16.3733 36.1945 16.4667C36.3411 16.68 37.2064 19.6267 37.3238 20.2933C37.4118 20.7467 37.4264 20.7467 37.9398 20.6667C38.2331 20.6133 38.4824 20.56 38.4971 20.5467C38.5558 20.5067 37.6904 17.56 37.3531 16.6533C36.9718 15.6 36.6784 15.3467 35.9158 15.44C35.3585 15.5067 35.3438 15.4933 35.2411 15.0533C35.0945 14.3067 34.6251 13.4267 34.3025 13.2667C34.1265 13.1867 33.7745 13.16 33.5105 13.2C33.1976 13.2533 32.9532 13.0089 32.7772 12.4667C32.4985 11.6 31.9852 11 31.5452 11C31.3985 11 31.0172 11.12 30.6945 11.2533ZM33.0998 13.5467C33.5252 13.68 32.5498 13.2 32.3445 13.4C32.2272 13.52 32.0072 13.972 31.9485 14.172C31.8458 14.532 32.9385 14.8533 32.5572 14.64C32.3372 14.52 32.1318 14.4 32.1025 14.3733C32.0732 14.3467 32.1465 14.2267 32.2785 14.0933C32.4252 13.96 32.4838 13.8133 32.4398 13.76C32.3665 13.6933 32.4838 13.4 32.5865 13.4C32.6158 13.4 32.8358 13.4667 33.0998 13.5467ZM34.8275 16.5213C35.0035 16.628 35.2529 16.892 35.0475 17.1053C34.9155 17.2387 35.6987 16.7693 35.7193 16.7693L35.0475 16.4667L35.3145 15.9933C34.9038 15.7 34.4051 16.4933 34.6545 16.1467C34.8011 15.96 34.8598 15.8 34.8158 15.8C34.7571 15.8 34.7571 15.7333 34.8011 15.6667C34.8891 15.5333 34.2702 16.188 34.8275 16.5213Z" fill="white" fill-opacity="0.89"/>
<path d="M15.774 65.9988C15.6153 65.9988 15.4987 65.9941 15.424 65.9848C15.4613 66.8994 15.2233 67.6088 14.71 68.1128C14.206 68.6261 13.4127 69.0321 12.33 69.3308L11.462 69.5828L11 67.6648L11.868 67.4128C12.5307 67.2354 12.9927 67.0534 13.254 66.8668C13.5247 66.6801 13.66 66.3954 13.66 66.0128C13.66 65.9474 13.6507 65.8401 13.632 65.6908L13.072 61.6728L14.822 61.4068L14.92 62.1628C14.948 62.2841 15.0133 62.6481 15.116 63.2548C15.172 63.5628 15.2467 63.7681 15.34 63.8708C15.4333 63.9641 15.578 64.0108 15.774 64.0108H15.844L15.956 65.0048L15.844 65.9988H15.774ZM27.2222 65.9988C26.5688 65.9988 25.9388 65.7794 25.3322 65.3408C25.0802 65.5461 24.7955 65.7094 24.4782 65.8308C24.1702 65.9428 23.8528 65.9988 23.5262 65.9988H19.0742C18.5328 65.9988 18.0615 65.8074 17.6602 65.4248C17.1655 65.7888 16.5542 65.9801 15.8262 65.9988H15.7562V64.0108H15.8262C16.1808 64.0108 16.4468 63.9548 16.6242 63.8428C16.8108 63.7214 16.9182 63.5114 16.9462 63.2128L17.1002 61.4768L18.8642 61.6448L18.7102 63.3668C18.6915 63.6001 18.7148 63.7681 18.7802 63.8708C18.8455 63.9641 18.9528 64.0108 19.1022 64.0108L19.9702 62.8068C20.4928 62.0881 20.9175 61.5421 21.2442 61.1688C21.5708 60.7954 21.9162 60.5061 22.2802 60.3008C22.6442 60.0954 23.0595 59.9928 23.5262 59.9928C24.0675 59.9928 24.5575 60.1328 24.9962 60.4128C25.4442 60.6834 25.7942 61.0568 26.0462 61.5328C26.2982 61.9994 26.4242 62.5221 26.4242 63.1008C26.4242 63.3248 26.3962 63.5441 26.3402 63.7588C26.6015 63.9268 26.8955 64.0108 27.2222 64.0108H27.4182L27.5302 65.0048L27.4182 65.9988H27.2222ZM23.5262 64.0108C23.8435 64.0108 24.1095 63.9174 24.3242 63.7308C24.5388 63.5348 24.6462 63.2968 24.6462 63.0168C24.6462 62.7274 24.5482 62.4848 24.3522 62.2888C24.1562 62.0834 23.8995 61.9808 23.5822 61.9808C23.3582 61.9808 23.1528 62.0368 22.9662 62.1488C22.7795 62.2608 22.5742 62.4521 22.3502 62.7228C22.1262 62.9841 21.8228 63.3854 21.4402 63.9268L21.3842 64.0108H23.5262ZM27.2816 64.0108H27.5336C28.2242 64.0108 28.7982 63.9921 29.2556 63.9548L27.8556 62.0788L28.3596 60.5248L31.7756 60.0208C31.9062 60.0021 32.0089 59.9928 32.0836 59.9928C32.4662 59.9928 32.8162 60.0954 33.1336 60.3008C33.4602 60.5061 33.7169 60.7814 33.9036 61.1268C34.0902 61.4721 34.1836 61.8361 34.1836 62.2188C34.1836 62.5174 34.1276 62.8068 34.0156 63.0868C33.8942 63.4041 33.6796 63.7074 33.3716 63.9968C33.6329 64.0061 34.0856 64.0108 34.7296 64.0108L34.8416 65.0048L34.7296 65.9988C33.6562 65.9988 32.8256 65.9661 32.2376 65.9008C31.6589 65.8354 31.1502 65.6861 30.7116 65.4528C29.6382 65.8168 28.5789 65.9988 27.5336 65.9988H27.2816V64.0108ZM31.2576 63.5488C32.0136 63.2501 32.4616 62.7648 32.6016 62.0928L32.6296 61.9808C32.6296 61.9061 32.6016 61.8501 32.5456 61.8128C32.4989 61.7754 32.4382 61.7614 32.3636 61.7708L30.0676 62.0508L31.2576 63.5488ZM34.596 64.0108H37.06C37.424 64.0108 37.6713 63.9641 37.802 63.8708C37.9327 63.7774 37.9887 63.6188 37.97 63.3948V63.3668L37.816 61.6448L39.58 61.4768L39.734 63.1988V63.2828C39.7713 63.5814 39.846 63.7774 39.958 63.8708C40.0793 63.9641 40.308 64.0108 40.644 64.0108L40.756 65.0048L40.644 65.9988C39.916 65.9988 39.328 65.8121 38.88 65.4388C38.404 65.8121 37.7973 65.9988 37.06 65.9988H34.596V64.0108ZM33.742 67.2728H35.38V68.8968H33.742V67.2728ZM36.612 67.2728H38.25V68.8968H36.612V67.2728ZM40.5023 64.0108H40.8243C41.1883 64.0108 41.4309 63.9501 41.5523 63.8288C41.6829 63.7074 41.7436 63.5348 41.7343 63.3108L41.4683 56.3808L43.2323 56.2968L43.4983 63.2268C43.5263 63.7401 43.4376 64.2068 43.2323 64.6268C43.0269 65.0468 42.7189 65.3828 42.3083 65.6348C41.8976 65.8774 41.4029 65.9988 40.8243 65.9988H40.5023V64.0108ZM45.6933 67.6508C46.7946 67.4268 47.5693 67.2494 48.0173 67.1188C48.4653 66.9881 48.7733 66.8341 48.9413 66.6568C49.1093 66.4794 49.1886 66.2228 49.1793 65.8868C48.75 65.9614 48.2506 65.9988 47.6813 65.9988C47.1586 65.9988 46.692 65.8774 46.2813 65.6348C45.8706 65.3921 45.5486 65.0514 45.3153 64.6128C45.0913 64.1741 44.9793 63.6794 44.9793 63.1288C44.9793 62.5781 45.096 62.0648 45.3293 61.5888C45.572 61.1034 45.9033 60.7161 46.3233 60.4268C46.7526 60.1374 47.2286 59.9928 47.7513 59.9928C48.5446 59.9928 49.2073 60.2914 49.7393 60.8888C50.2713 61.4768 50.5886 62.2514 50.6913 63.2128L50.9293 65.4808C50.948 65.6301 50.9573 65.8354 50.9573 66.0968C50.9573 66.8061 50.794 67.3708 50.4673 67.7908C50.1406 68.2201 49.6366 68.5608 48.9553 68.8128C48.274 69.0741 47.3033 69.3308 46.0433 69.5828L45.6933 67.6508ZM46.7573 63.1428C46.7573 63.7214 47.0653 64.0108 47.6813 64.0108C48.1573 64.0108 48.5913 63.9781 48.9833 63.9128L48.9413 63.4648C48.8946 62.9888 48.7686 62.6248 48.5633 62.3728C48.358 62.1114 48.0966 61.9808 47.7793 61.9808C47.462 61.9808 47.21 62.0928 47.0233 62.3168C46.846 62.5408 46.7573 62.8161 46.7573 63.1428Z" fill="#525252"/>
</svg>
