<svg width="63" height="78" viewBox="0 0 63 78" fill="none" xmlns="http://www.w3.org/2000/svg">
<path d="M44.9403 25.0858H44.9517C44.9517 25.0858 40.6436 31.2902 37.0211 35.9014C33.89 39.8843 32.9759 43.295 32.713 44.9442C32.6102 45.5501 32.1074 45.9988 31.5017 45.9988C30.8961 45.9988 30.3933 45.5501 30.2904 44.9442C30.0276 43.295 29.1134 39.8843 25.9823 35.9014C25.5023 35.2843 25.011 34.6448 24.5196 33.9941L36.3469 20.1942L45.8659 9.10938C46.9172 11.2747 47.5 13.6981 47.5 16.2674C47.5 19.521 46.5516 22.539 44.9403 25.0858Z" fill="#999999"/>
<path d="M36.343 20.1934L24.5157 33.9933C21.2932 29.7524 18.0478 25.0851 18.0478 25.0851H18.0592C17.7164 24.5466 17.4078 23.9968 17.145 23.4246L26.6526 12.3398C25.7498 13.4057 25.2127 14.7745 25.2127 16.2666C25.2127 19.6773 28.0239 22.4373 31.4978 22.4373C33.4519 22.4373 35.2003 21.5622 36.343 20.1934Z" fill="#999999"/>
<path d="M36.5273 0.830237L26.734 12.2516L19.2377 5.8341C22.1631 2.26632 26.574 0 31.4992 0C33.2591 0 34.9503 0.291705 36.5273 0.830237Z" fill="#999999"/>
<path d="M26.7331 12.2495L26.6531 12.3393L17.1455 23.4241C16.0942 21.2587 15.4999 18.8353 15.4999 16.2661C15.4999 12.2944 16.9055 8.64811 19.2367 5.83203L26.7331 12.2495Z" fill="#999999"/>
<path d="M36.343 20.1968C37.2458 19.1309 37.7829 17.7621 37.7829 16.27C37.7829 12.8593 34.9717 10.0993 31.4978 10.0993C29.5437 10.0993 27.7953 10.9744 26.6526 12.3432L36.5258 0.832031C40.6283 2.2008 43.9879 5.21883 45.862 9.11197L36.343 20.1968Z" fill="#999999"/>
<circle cx="31.4999" cy="16" r="11.5" fill="#999999" stroke="white"/>
<path d="M30.6945 11.2533C30.3719 11.3867 29.7852 11.68 29.3892 11.92C28.9785 12.1467 28.5532 12.3333 28.4359 12.3333C28.3039 12.3333 27.8346 12.12 27.3946 11.8667C26.4852 11.3333 25.6786 11.2533 25.2972 11.64C24.9746 11.9733 24.7839 12.84 24.6813 14.5333C24.6226 15.3467 24.5639 16.1333 24.5199 16.2933C24.4613 16.5733 24.5053 16.6 25.0186 16.6H25.5906L25.6786 15.0933C25.8106 13.12 25.9279 12.3333 26.1186 12.3333C26.2066 12.3333 26.6026 12.5333 27.0132 12.76C28.0399 13.36 28.9492 13.3733 29.8879 12.7867C30.2545 12.56 30.7532 12.28 31.0172 12.16L31.4718 11.9333L31.7798 12.76C31.9558 13.2133 32.0878 13.6267 32.0878 13.6933C32.0878 13.84 31.0318 14.4667 30.7679 14.4667C30.6359 14.4667 30.1812 14.2533 29.7412 14C28.9639 13.5467 28.1425 13.4 27.7466 13.64C27.3212 13.8933 27.0866 14.96 26.8812 17.6267L26.8079 18.7333H27.9812V17.76C27.9812 16.76 28.2305 14.5867 28.3625 14.48C28.4065 14.44 28.6119 14.5067 28.8319 14.6267C30.0345 15.3067 30.3865 15.4267 30.9585 15.36C31.2812 15.32 31.7358 15.16 31.9705 15C32.2052 14.84 32.4252 14.7333 32.4398 14.76C32.4692 14.7733 32.5718 15.1733 32.6745 15.6133L32.8505 16.44L33.3052 16.32C33.5398 16.2667 33.7745 16.1867 33.8038 16.1467C33.8331 16.12 33.7598 15.7333 33.6425 15.2933C33.3492 14.3067 33.3492 14.2533 33.6278 14.1467C33.7892 14.0933 33.9211 14.2933 34.1411 14.9467C34.3025 15.44 34.4345 15.88 34.4345 15.9467C34.4345 16 34.1411 16.2133 33.7892 16.4C33.0705 16.7733 32.8358 16.7467 31.9558 16.1467C30.8852 15.4267 29.8879 15.6 29.6092 16.5733C29.4625 17.0667 29.1545 19.7333 29.1545 20.56C29.1545 20.9733 29.1839 21 29.6532 21H30.1519L30.2399 19.8267C30.3719 18.2667 30.5772 16.7333 30.6799 16.64C30.7239 16.6 31.1198 16.7867 31.5745 17.0667C32.5425 17.68 33.3638 17.7467 34.1705 17.2933C34.4638 17.1333 34.7278 17 34.7718 17C34.8011 17 34.8891 17.28 34.9478 17.6133C34.9918 17.96 35.0798 18.3067 35.1091 18.3867C35.1825 18.56 36.0038 18.52 36.1211 18.3333C36.1505 18.28 36.0625 17.84 35.9158 17.3467C35.6811 16.56 35.6665 16.44 35.8571 16.3733C35.9745 16.3333 36.1358 16.3733 36.1945 16.4667C36.3411 16.68 37.2064 19.6267 37.3238 20.2933C37.4118 20.7467 37.4264 20.7467 37.9398 20.6667C38.2331 20.6133 38.4824 20.56 38.4971 20.5467C38.5558 20.5067 37.6904 17.56 37.3531 16.6533C36.9718 15.6 36.6784 15.3467 35.9158 15.44C35.3585 15.5067 35.3438 15.4933 35.2411 15.0533C35.0945 14.3067 34.6251 13.4267 34.3025 13.2667C34.1265 13.1867 33.7745 13.16 33.5105 13.2C33.1976 13.2533 32.9532 13.0089 32.7772 12.4667C32.4985 11.6 31.9852 11 31.5452 11C31.3985 11 31.0172 11.12 30.6945 11.2533ZM33.0998 13.5467C33.5252 13.68 32.5498 13.2 32.3445 13.4C32.2272 13.52 32.0072 13.972 31.9485 14.172C31.8458 14.532 32.9385 14.8533 32.5572 14.64C32.3372 14.52 32.1318 14.4 32.1025 14.3733C32.0732 14.3467 32.1465 14.2267 32.2785 14.0933C32.4252 13.96 32.4838 13.8133 32.4398 13.76C32.3665 13.6933 32.4838 13.4 32.5865 13.4C32.6158 13.4 32.8358 13.4667 33.0998 13.5467ZM34.8275 16.5213C35.0035 16.628 35.2529 16.892 35.0475 17.1053C34.9155 17.2387 35.6987 16.7693 35.7193 16.7693L35.0475 16.4667L35.3145 15.9933C34.9038 15.7 34.4051 16.4933 34.6545 16.1467C34.8011 15.96 34.8598 15.8 34.8158 15.8C34.7571 15.8 34.7571 15.7333 34.8011 15.6667C34.8891 15.5333 34.2702 16.188 34.8275 16.5213Z" fill="white" fill-opacity="0.89"/>
<path d="M9.224 70.2328L8.51 68.4968C9.00467 68.3288 9.45733 68.1328 9.868 67.9088C10.288 67.6848 10.652 67.4374 10.96 67.1668C11.268 66.8961 11.506 66.6021 11.674 66.2848C11.842 65.9581 11.926 65.6081 11.926 65.2348C11.926 64.8428 11.8373 64.4134 11.66 63.9468C11.4827 63.4801 11.268 63.0041 11.016 62.5188L12.85 61.6368C13.018 61.9261 13.1627 62.2388 13.284 62.5748C13.4147 62.9014 13.522 63.1954 13.606 63.4568C13.69 63.7181 13.746 63.8954 13.774 63.9888C13.9047 64.4368 14.082 64.7354 14.306 64.8848C14.5393 65.0341 14.9127 65.1088 15.426 65.1088C15.7807 65.1088 16.0327 65.2021 16.182 65.3888C16.3407 65.5661 16.42 65.7901 16.42 66.0608C16.42 66.3501 16.322 66.5928 16.126 66.7888C15.93 66.9754 15.65 67.0688 15.286 67.0688C14.9033 67.0688 14.5673 67.0128 14.278 66.9008C13.9887 66.7888 13.7553 66.6254 13.578 66.4108C13.41 66.1961 13.3027 65.9441 13.256 65.6548L13.774 65.9488C13.718 66.4434 13.5547 66.9101 13.284 67.3488C13.0227 67.7968 12.682 68.2074 12.262 68.5808C11.842 68.9541 11.3707 69.2808 10.848 69.5608C10.3253 69.8408 9.784 70.0648 9.224 70.2328ZM29.3447 67.0688C28.8687 67.0688 28.4114 67.0268 27.9727 66.9428C27.5341 66.8494 27.1374 66.7281 26.7827 66.5788C26.4374 66.4294 26.1527 66.2614 25.9287 66.0748L27.1887 64.7168C27.5247 64.8568 27.8701 64.9594 28.2247 65.0248C28.5794 65.0808 28.9994 65.1088 29.4847 65.1088C29.8394 65.1088 30.0914 65.2021 30.2407 65.3888C30.3994 65.5661 30.4787 65.7901 30.4787 66.0608C30.4787 66.3501 30.3807 66.5928 30.1847 66.7888C29.9887 66.9754 29.7087 67.0688 29.3447 67.0688ZM22.5547 67.2508C21.6867 67.2508 20.9634 67.2134 20.3847 67.1388C19.8154 67.0641 19.3534 66.9568 18.9987 66.8168C18.6441 66.6768 18.3641 66.5088 18.1587 66.3128C17.9534 66.1168 17.7854 65.9021 17.6547 65.6688L18.0467 65.5568C17.8134 66.0048 17.5474 66.3361 17.2487 66.5508C16.9501 66.7654 16.6374 66.9054 16.3107 66.9708C15.9841 67.0361 15.6481 67.0688 15.3027 67.0688L15.4427 65.1088C15.7321 65.1088 15.9607 65.0621 16.1287 64.9688C16.2967 64.8754 16.4321 64.7214 16.5347 64.5068C16.6467 64.2921 16.7494 64.0074 16.8427 63.6528C16.9361 63.2981 17.0481 62.8641 17.1787 62.3508L18.9567 62.7848C18.8914 63.0368 18.8354 63.2561 18.7887 63.4428C18.7514 63.6294 18.7187 63.7928 18.6907 63.9328C18.6721 64.0634 18.6627 64.1708 18.6627 64.2548C18.6627 64.4321 18.7047 64.5908 18.7887 64.7308C18.8727 64.8614 19.0361 64.9688 19.2787 65.0528C19.5214 65.1274 19.8761 65.1881 20.3427 65.2348C20.8187 65.2721 21.4394 65.2908 22.2047 65.2908C23.0167 65.2908 23.6934 65.2628 24.2347 65.2068C24.7761 65.1414 25.2054 65.0528 25.5227 64.9408C25.8494 64.8194 26.0827 64.6748 26.2227 64.5068C26.3627 64.3294 26.4327 64.1288 26.4327 63.9048C26.4327 63.7274 26.3907 63.5641 26.3067 63.4148C26.2321 63.2561 26.1061 63.1254 25.9287 63.0228C25.7514 62.9201 25.5227 62.8688 25.2427 62.8688C24.9067 62.8688 24.5661 62.9528 24.2207 63.1208C23.8847 63.2794 23.5534 63.4941 23.2267 63.7648C22.9001 64.0261 22.5874 64.3201 22.2887 64.6468C21.9994 64.9734 21.7381 65.3001 21.5047 65.6268L19.4047 65.3888C19.7687 64.8008 20.1794 64.2361 20.6367 63.6948C21.0941 63.1534 21.5841 62.6774 22.1067 62.2668C22.6294 61.8468 23.1707 61.5154 23.7307 61.2728C24.2907 61.0301 24.8601 60.9088 25.4387 60.9088C26.0641 60.9088 26.5961 61.0301 27.0347 61.2728C27.4734 61.5154 27.8094 61.8514 28.0427 62.2808C28.2761 62.7101 28.3927 63.2048 28.3927 63.7648C28.3927 64.4461 28.1967 65.0481 27.8047 65.5708C27.4221 66.0934 26.8014 66.5041 25.9427 66.8028C25.0934 67.1014 23.9641 67.2508 22.5547 67.2508ZM29.3014 67.0688L29.4414 65.1088C30.0948 65.1088 30.6828 65.0668 31.2054 64.9828C31.7281 64.8894 32.1854 64.7681 32.5774 64.6188C32.9788 64.4694 33.3101 64.2968 33.5714 64.1008C33.8421 63.9048 34.0428 63.6994 34.1734 63.4848C34.3134 63.2608 34.3834 63.0414 34.3834 62.8268C34.3834 62.7054 34.3508 62.5934 34.2854 62.4908C34.2294 62.3788 34.1314 62.2901 33.9914 62.2248C33.8514 62.1501 33.6601 62.1128 33.4174 62.1128C33.2961 62.1128 33.1514 62.1268 32.9834 62.1548C32.8154 62.1828 32.6474 62.2248 32.4794 62.2808C32.3114 62.3274 32.1528 62.3928 32.0034 62.4768C32.1994 62.6261 32.4141 62.8174 32.6474 63.0508C32.8808 63.2748 33.1141 63.5128 33.3474 63.7648C33.5808 64.0074 33.7814 64.2454 33.9494 64.4788C34.1454 64.5628 34.3601 64.6468 34.5934 64.7308C34.8361 64.8054 35.0974 64.8708 35.3774 64.9268C35.6574 64.9828 35.9514 65.0294 36.2594 65.0668C36.5674 65.0948 36.8848 65.1088 37.2114 65.1088C37.5661 65.1088 37.8181 65.2021 37.9674 65.3888C38.1261 65.5661 38.2054 65.7901 38.2054 66.0608C38.2054 66.3501 38.1074 66.5928 37.9114 66.7888C37.7154 66.9754 37.4354 67.0688 37.0714 67.0688C36.3248 67.0688 35.6621 67.0128 35.0834 66.9008C34.5048 66.7794 33.9868 66.6068 33.5294 66.3828C33.0814 66.1494 32.6614 65.8694 32.2694 65.5428C32.1574 65.3468 31.9988 65.1368 31.7934 64.9128C31.5974 64.6794 31.3874 64.4554 31.1634 64.2408C30.9488 64.0261 30.7528 63.8488 30.5754 63.7088C30.5288 63.6714 30.4728 63.5734 30.4074 63.4148C30.3514 63.2468 30.3001 63.0741 30.2534 62.8968C30.2068 62.7101 30.1834 62.5794 30.1834 62.5048C30.1834 62.2901 30.2814 62.0614 30.4774 61.8188C30.6828 61.5761 30.9534 61.3521 31.2894 61.1468C31.6348 60.9321 32.0128 60.7594 32.4234 60.6288C32.8434 60.4888 33.2681 60.4188 33.6974 60.4188C34.2761 60.4188 34.7568 60.5074 35.1394 60.6848C35.5314 60.8528 35.8254 61.0908 36.0214 61.3988C36.2174 61.6974 36.3154 62.0474 36.3154 62.4488C36.3154 62.8968 36.2174 63.3448 36.0214 63.7928C35.8254 64.2314 35.5361 64.6468 35.1534 65.0388C34.7801 65.4308 34.3088 65.7808 33.7394 66.0888C33.1794 66.3874 32.5261 66.6254 31.7794 66.8028C31.0421 66.9801 30.2161 67.0688 29.3014 67.0688ZM37.082 67.0688L37.222 65.1088C37.558 65.1088 37.8474 65.0761 38.09 65.0108C38.3327 64.9454 38.538 64.8148 38.706 64.6188C38.874 64.4134 39.014 64.1148 39.126 63.7228C39.2474 63.3308 39.3547 62.8081 39.448 62.1548L41.282 62.4628C41.2634 62.6028 41.2354 62.7661 41.198 62.9528C41.17 63.1394 41.142 63.3308 41.114 63.5268C41.0954 63.7134 41.086 63.8908 41.086 64.0588C41.086 64.2268 41.1187 64.3761 41.184 64.5068C41.2494 64.6374 41.352 64.7494 41.492 64.8428C41.6414 64.9268 41.8327 64.9921 42.066 65.0388C42.3087 65.0854 42.6027 65.1088 42.948 65.1088C43.3027 65.1088 43.5547 65.2021 43.704 65.3888C43.8534 65.5661 43.928 65.7901 43.928 66.0608C43.928 66.3501 43.83 66.5928 43.634 66.7888C43.4474 66.9754 43.172 67.0688 42.808 67.0688C42.388 67.0688 42.0054 67.0361 41.66 66.9708C41.324 66.9054 41.03 66.7981 40.778 66.6488C40.5354 66.4901 40.3347 66.2848 40.176 66.0328C40.0267 65.7714 39.9334 65.4541 39.896 65.0808H40.568C40.4 65.5288 40.1854 65.8881 39.924 66.1588C39.672 66.4201 39.3874 66.6161 39.07 66.7468C38.7527 66.8774 38.4214 66.9614 38.076 66.9988C37.74 67.0454 37.4087 67.0688 37.082 67.0688ZM40.988 70.3168C40.7174 70.3168 40.484 70.2188 40.288 70.0228C40.1014 69.8361 40.008 69.6121 40.008 69.3508C40.008 69.0801 40.1014 68.8468 40.288 68.6508C40.484 68.4548 40.7174 68.3568 40.988 68.3568C41.2494 68.3568 41.4734 68.4548 41.66 68.6508C41.8467 68.8468 41.94 69.0801 41.94 69.3508C41.94 69.6121 41.8467 69.8361 41.66 70.0228C41.4734 70.2188 41.2494 70.3168 40.988 70.3168ZM38.566 70.3168C38.2954 70.3168 38.062 70.2188 37.866 70.0228C37.6794 69.8361 37.586 69.6121 37.586 69.3508C37.586 69.0801 37.6794 68.8468 37.866 68.6508C38.062 68.4548 38.2954 68.3568 38.566 68.3568C38.8274 68.3568 39.0514 68.4548 39.238 68.6508C39.4247 68.8468 39.518 69.0801 39.518 69.3508C39.518 69.6121 39.4247 69.8361 39.238 70.0228C39.0514 70.2188 38.8274 70.3168 38.566 70.3168ZM42.8105 67.0688L42.9505 65.1088C43.3799 65.1088 43.6879 65.0668 43.8745 64.9828C44.0612 64.8894 44.1732 64.7214 44.2105 64.4788C44.2479 64.2268 44.2572 63.8628 44.2385 63.3868L43.9865 56.7508H45.9605L46.2405 63.5268C46.2592 64.0681 46.2359 64.5581 46.1705 64.9968C46.1145 65.4261 45.9699 65.7948 45.7365 66.1028C45.5125 66.4108 45.1625 66.6488 44.6865 66.8168C44.2199 66.9848 43.5945 67.0688 42.8105 67.0688ZM47.7648 70.2188L47.3588 68.2588C48.0215 68.1748 48.6001 68.0721 49.0948 67.9508C49.5895 67.8388 50.0048 67.6801 50.3408 67.4748C50.6768 67.2694 50.9288 66.9894 51.0968 66.6348C51.2648 66.2708 51.3488 65.8041 51.3488 65.2348C51.3488 65.0294 51.3301 64.8241 51.2928 64.6188C51.2555 64.4041 51.1995 64.2081 51.1248 64.0308C51.0501 63.8534 50.9521 63.7088 50.8308 63.5968C50.7188 63.4848 50.5835 63.4288 50.4248 63.4288C50.2568 63.4288 50.1075 63.4894 49.9768 63.6108C49.8461 63.7228 49.7435 63.8674 49.6688 64.0448C49.5941 64.2128 49.5568 64.3854 49.5568 64.5628C49.5568 64.6934 49.5895 64.8054 49.6548 64.8988C49.7201 64.9828 49.8181 65.0481 49.9488 65.0948C50.0795 65.1321 50.2428 65.1508 50.4388 65.1508C50.6628 65.1508 50.8915 65.1274 51.1248 65.0808C51.3675 65.0248 51.5868 64.9501 51.7828 64.8568L51.8388 66.3828C51.6148 66.5601 51.3581 66.7188 51.0688 66.8588C50.7795 66.9894 50.4295 67.0548 50.0188 67.0548C49.6828 67.0548 49.3701 67.0174 49.0808 66.9428C48.7915 66.8588 48.5348 66.7328 48.3108 66.5648C48.0961 66.3968 47.9281 66.1821 47.8068 65.9208C47.6855 65.6501 47.6248 65.3281 47.6248 64.9548C47.6248 64.4974 47.6995 64.0541 47.8488 63.6248C47.9981 63.1954 48.2035 62.8128 48.4648 62.4768C48.7355 62.1314 49.0435 61.8608 49.3888 61.6648C49.7435 61.4594 50.1168 61.3568 50.5088 61.3568C50.9755 61.3568 51.3815 61.4734 51.7268 61.7068C52.0815 61.9401 52.3755 62.2481 52.6088 62.6308C52.8421 63.0041 53.0195 63.4101 53.1408 63.8488C53.2621 64.2874 53.3228 64.7074 53.3228 65.1088C53.3228 66.1634 53.0988 67.0594 52.6508 67.7968C52.2028 68.5341 51.5635 69.1034 50.7328 69.5048C49.9021 69.9154 48.9128 70.1534 47.7648 70.2188Z" fill="#525252"/>
</svg>
