<svg width="63" height="78" viewBox="0 0 63 78" fill="none" xmlns="http://www.w3.org/2000/svg">
<path d="M44.9403 25.0858H44.9517C44.9517 25.0858 40.6436 31.2902 37.0211 35.9014C33.89 39.8843 32.9758 43.295 32.713 44.9442C32.6101 45.5501 32.1073 45.9988 31.5017 45.9988C30.896 45.9988 30.3932 45.5501 30.2904 44.9442C30.0275 43.295 29.1133 39.8843 25.9822 35.9014C25.5023 35.2843 25.0109 34.6448 24.5195 33.9941L36.3469 20.1942L45.8659 9.10938C46.9172 11.2747 47.5 13.6981 47.5 16.2674C47.5 19.521 46.5515 22.539 44.9403 25.0858Z" fill="#F87A08"/>
<path d="M36.3429 20.1934L24.5156 33.9933C21.293 29.7524 18.0477 25.0851 18.0477 25.0851H18.0591C17.7163 24.5466 17.4077 23.9968 17.1449 23.4246L26.6525 12.3398C25.7497 13.4057 25.2126 14.7745 25.2126 16.2666C25.2126 19.6773 28.0238 22.4373 31.4977 22.4373C33.4518 22.4373 35.2002 21.5622 36.3429 20.1934Z" fill="#F87A08"/>
<path d="M36.5272 0.830237L26.7339 12.2516L19.2375 5.8341C22.163 2.26632 26.5739 0 31.4991 0C33.2589 0 34.9502 0.291705 36.5272 0.830237Z" fill="#F87A08"/>
<path d="M26.733 12.2495L26.653 12.3393L17.1454 23.4241C16.0941 21.2587 15.4999 18.8353 15.4999 16.2661C15.4999 12.2944 16.9054 8.64811 19.2366 5.83203L26.733 12.2495Z" fill="#F87A08"/>
<path d="M36.3429 20.1968C37.2456 19.1309 37.7827 17.7621 37.7827 16.27C37.7827 12.8593 34.9716 10.0993 31.4977 10.0993C29.5436 10.0993 27.7952 10.9744 26.6525 12.3432L36.5257 0.832031C40.6281 2.2008 43.9878 5.21883 45.8619 9.11197L36.3429 20.1968Z" fill="#F87A08"/>
<circle cx="31.4999" cy="16" r="11.5" fill="#F87A08" stroke="white"/>
<path d="M30.6945 11.2533C30.3718 11.3867 29.7851 11.68 29.3891 11.92C28.9785 12.1467 28.5531 12.3333 28.4358 12.3333C28.3038 12.3333 27.8345 12.12 27.3945 11.8667C26.4852 11.3333 25.6785 11.2533 25.2972 11.64C24.9745 11.9733 24.7839 12.84 24.6812 14.5333C24.6225 15.3467 24.5639 16.1333 24.5199 16.2933C24.4612 16.5733 24.5052 16.6 25.0185 16.6H25.5905L25.6785 15.0933C25.8105 13.12 25.9278 12.3333 26.1185 12.3333C26.2065 12.3333 26.6025 12.5333 27.0132 12.76C28.0398 13.36 28.9491 13.3733 29.8878 12.7867C30.2545 12.56 30.7531 12.28 31.0171 12.16L31.4718 11.9333L31.7798 12.76C31.9558 13.2133 32.0878 13.6267 32.0878 13.6933C32.0878 13.84 31.0318 14.4667 30.7678 14.4667C30.6358 14.4667 30.1811 14.2533 29.7411 14C28.9638 13.5467 28.1425 13.4 27.7465 13.64C27.3212 13.8933 27.0865 14.96 26.8812 17.6267L26.8078 18.7333H27.9812V17.76C27.9812 16.76 28.2305 14.5867 28.3625 14.48C28.4065 14.44 28.6118 14.5067 28.8318 14.6267C30.0345 15.3067 30.3865 15.4267 30.9585 15.36C31.2811 15.32 31.7358 15.16 31.9704 15C32.2051 14.84 32.4251 14.7333 32.4398 14.76C32.4691 14.7733 32.5718 15.1733 32.6744 15.6133L32.8504 16.44L33.3051 16.32C33.5398 16.2667 33.7744 16.1867 33.8038 16.1467C33.8331 16.12 33.7598 15.7333 33.6424 15.2933C33.3491 14.3067 33.3491 14.2533 33.6278 14.1467C33.7891 14.0933 33.9211 14.2933 34.1411 14.9467C34.3024 15.44 34.4344 15.88 34.4344 15.9467C34.4344 16 34.1411 16.2133 33.7891 16.4C33.0704 16.7733 32.8358 16.7467 31.9558 16.1467C30.8851 15.4267 29.8878 15.6 29.6091 16.5733C29.4625 17.0667 29.1545 19.7333 29.1545 20.56C29.1545 20.9733 29.1838 21 29.6531 21H30.1518L30.2398 19.8267C30.3718 18.2667 30.5771 16.7333 30.6798 16.64C30.7238 16.6 31.1198 16.7867 31.5744 17.0667C32.5424 17.68 33.3638 17.7467 34.1704 17.2933C34.4637 17.1333 34.7277 17 34.7717 17C34.8011 17 34.8891 17.28 34.9477 17.6133C34.9917 17.96 35.0797 18.3067 35.1091 18.3867C35.1824 18.56 36.0037 18.52 36.1211 18.3333C36.1504 18.28 36.0624 17.84 35.9157 17.3467C35.6811 16.56 35.6664 16.44 35.8571 16.3733C35.9744 16.3333 36.1357 16.3733 36.1944 16.4667C36.3411 16.68 37.2064 19.6267 37.3237 20.2933C37.4117 20.7467 37.4264 20.7467 37.9397 20.6667C38.233 20.6133 38.4824 20.56 38.497 20.5467C38.5557 20.5067 37.6904 17.56 37.353 16.6533C36.9717 15.6 36.6784 15.3467 35.9157 15.44C35.3584 15.5067 35.3437 15.4933 35.2411 15.0533C35.0944 14.3067 34.6251 13.4267 34.3024 13.2667C34.1264 13.1867 33.7744 13.16 33.5104 13.2C33.1975 13.2533 32.9531 13.0089 32.7771 12.4667C32.4984 11.6 31.9851 11 31.5451 11C31.3984 11 31.0171 11.12 30.6945 11.2533ZM33.0998 13.5467C33.5251 13.68 32.5498 13.2 32.3444 13.4C32.2271 13.52 32.0071 13.972 31.9484 14.172C31.8458 14.532 32.9384 14.8533 32.5571 14.64C32.3371 14.52 32.1318 14.4 32.1024 14.3733C32.0731 14.3467 32.1464 14.2267 32.2784 14.0933C32.4251 13.96 32.4838 13.8133 32.4398 13.76C32.3664 13.6933 32.4838 13.4 32.5864 13.4C32.6158 13.4 32.8358 13.4667 33.0998 13.5467ZM34.8275 16.5213C35.0035 16.628 35.2528 16.892 35.0475 17.1053C34.9155 17.2387 35.6987 16.7693 35.7192 16.7693L35.0475 16.4667L35.3144 15.9933C34.9037 15.7 34.4051 16.4933 34.6544 16.1467C34.8011 15.96 34.8597 15.8 34.8157 15.8C34.7571 15.8 34.7571 15.7333 34.8011 15.6667C34.8891 15.5333 34.2702 16.188 34.8275 16.5213Z" fill="white" fill-opacity="0.89"/>
<path d="M19.15 65.9989C18.114 65.9989 17.3347 65.9896 16.812 65.9709C16.2893 65.9522 15.8787 65.9149 15.58 65.8589C15.2813 65.8029 14.9967 65.7142 14.726 65.5929C14.2313 65.3782 13.8533 65.0609 13.592 64.6409C13.34 64.2209 13.214 63.7356 13.214 63.1849C13.214 62.8676 13.256 62.5409 13.34 62.2049L13.872 60.1609L15.58 60.6789L15.034 62.7929C14.9873 62.9609 14.964 63.0962 14.964 63.1989C14.964 63.3389 15.0013 63.4556 15.076 63.5489C15.1507 63.6329 15.2673 63.7076 15.426 63.7729C15.622 63.8662 15.9533 63.9316 16.42 63.9689C16.8867 63.9969 17.8433 64.0109 19.29 64.0109H19.304C20.7133 64.0109 21.6467 63.9922 22.104 63.9549C22.5613 63.9176 22.902 63.8569 23.126 63.7729C23.2847 63.7076 23.4013 63.6282 23.476 63.5349C23.5507 63.4322 23.588 63.2969 23.588 63.1289C23.588 62.9796 23.56 62.8022 23.504 62.5969L22.972 60.6509L24.68 60.1469L25.212 62.0929C25.3053 62.4382 25.352 62.7929 25.352 63.1569C25.352 63.7169 25.2213 64.2116 24.96 64.6409C24.708 65.0609 24.3347 65.3782 23.84 65.5929C23.5693 65.7142 23.2753 65.8029 22.958 65.8589C22.6407 65.9149 22.2113 65.9522 21.67 65.9709C21.138 65.9896 20.3493 65.9989 19.304 65.9989H19.29H19.15ZM18.352 67.1329H20.2V68.9809H18.352V67.1329ZM34 65.9989C33.2253 65.9989 32.6373 65.7936 32.236 65.3829C31.7506 65.7936 31.144 65.9989 30.416 65.9989H26.93V64.0109H30.416C30.78 64.0109 31.0226 63.9502 31.144 63.8289C31.2746 63.6982 31.3353 63.5256 31.326 63.3109L31.06 56.3809L32.824 56.2969L33.076 62.9749L33.09 63.0869C33.1086 63.4509 33.188 63.6982 33.328 63.8289C33.4773 63.9502 33.7013 64.0109 34 64.0109H34.28L34.392 65.0049L34.28 65.9989H34ZM27.938 56.8429L29.086 63.0169L27.35 63.3669L26.202 57.2069L27.938 56.8429ZM34.1409 64.0109H35.0369C35.2423 64.0109 35.4056 64.0062 35.5269 63.9969C35.2096 63.6049 35.0649 63.2222 35.0929 62.8489L35.1769 62.0229C35.2236 61.5469 35.3729 61.1176 35.6249 60.7349C35.8863 60.3522 36.2176 60.0536 36.6189 59.8389C37.0203 59.6242 37.4543 59.5169 37.9209 59.5169C38.4623 59.5169 38.9429 59.6616 39.3629 59.9509C39.7923 60.2402 40.1189 60.6229 40.3429 61.0989C40.5669 61.5656 40.6649 62.0602 40.6369 62.5829L40.5949 63.2269C40.5856 63.4789 40.4736 63.7402 40.2589 64.0109H40.4969H41.5189L41.6309 65.0049L41.5189 65.9989H40.4969C39.6476 65.9989 38.7656 65.8262 37.8509 65.4809C37.3936 65.6396 36.9176 65.7656 36.4229 65.8589C35.9376 65.9522 35.4756 65.9989 35.0369 65.9989H34.1409V64.0109ZM35.6109 56.9129H37.2489V58.5509H35.6109V56.9129ZM36.8709 62.9329C37.0576 63.1942 37.3656 63.4136 37.7949 63.5909C38.3736 63.4042 38.7143 63.2129 38.8169 63.0169L38.8869 62.5689C38.9149 62.2982 38.8356 62.0509 38.6489 61.8269C38.4623 61.6029 38.2149 61.4909 37.9069 61.4909C37.6549 61.4909 37.4309 61.5749 37.2349 61.7429C37.0389 61.9016 36.9316 62.1069 36.9129 62.3589L36.8709 62.9329ZM38.4809 56.9129H40.1189V58.5509H38.4809V56.9129ZM41.3734 64.0109H42.4794C42.8807 64.0109 43.1747 63.9549 43.3614 63.8429C43.5574 63.7309 43.6554 63.5349 43.6554 63.2549C43.6554 63.1149 43.6274 62.9422 43.5714 62.7369L43.0114 60.6509L44.7194 60.1469L45.2794 62.2329C45.3727 62.5969 45.4194 62.9516 45.4194 63.2969C45.4194 64.1182 45.1487 64.7762 44.6074 65.2709C44.066 65.7562 43.3567 65.9989 42.4794 65.9989H41.3734V64.0109ZM42.3114 57.1649H44.1454V58.9989H42.3114V57.1649ZM47.1551 56.3809L48.9331 56.2969L49.2971 65.9709L47.5331 66.0549L47.1551 56.3809Z" fill="#525252"/>
</svg>
