<svg width="200" height="101" viewBox="0 0 200 101" fill="none" xmlns="http://www.w3.org/2000/svg">
<g clip-path="url(#clip0_3465_50497)">
<path d="M33.9476 6.51295C32.1921 6.51295 30.8154 5.0836 30.8154 3.25647C30.8154 1.42935 32.2491 0 33.9476 0C35.6461 0 37.0798 1.49055 37.0798 3.25647C37.0798 5.0224 35.7031 6.51295 33.9476 6.51295Z" fill="white"/>
<path d="M40.9406 40.001C39.2177 40.001 37.8125 38.5324 37.8125 36.7271C37.8125 34.9218 39.2136 33.4531 40.9406 33.4531H51.1477C52.8706 33.4531 54.2758 34.9218 54.2758 36.7271C54.2758 38.5324 52.8706 40.001 51.1477 40.001H40.9406Z" fill="white"/>
<path d="M174.997 12.6283C173.975 10.8886 172.594 9.54229 170.904 8.62436L170.855 8.59376C169.042 7.57092 167.046 7.04639 164.912 7.04639H139.447C137.961 7.04639 136.747 8.33586 136.747 9.92695C136.747 11.1596 137.545 12.2742 138.641 12.5758L141.639 13.4063L140.755 16.5885C140.592 17.183 140.515 17.7469 140.515 18.4156C140.515 19.4866 140.584 21.2394 140.653 21.6677L141.142 24.1024H133.521L134.181 21.4973C134.442 20.4744 134.576 19.421 134.576 18.3676C134.576 11.8284 129.619 6.5 123.522 6.5C117.424 6.5 112.472 11.824 112.472 18.3676C112.472 19.421 112.602 20.4744 112.863 21.4973L113.523 24.1024H107.042L107.702 21.4973C107.963 20.4744 108.093 19.421 108.093 18.3676C108.093 11.8284 103.136 6.5 97.043 6.5C90.9497 6.5 85.9887 11.824 85.9887 18.3676C85.9887 19.421 86.119 20.4701 86.3797 21.4929L87.0436 24.0981H80.1561L80.8689 21.4492C81.1214 20.5181 81.2599 19.539 81.2884 18.5424C81.2884 18.4593 81.2925 18.3807 81.2966 18.2976C81.2966 18.232 81.3006 18.1665 81.3006 18.1009C81.3006 15.6881 80.8363 13.5419 80.0217 12.2174L79.9769 12.1387C78.9912 10.4253 77.643 9.10081 75.8509 8.08671C74.1035 7.09884 72.1078 6.59616 69.9124 6.59616H58.2879C56.7727 6.59616 55.5875 7.83756 55.5875 9.4199C55.5875 10.6045 56.2595 11.6448 57.2941 12.0732L59.2043 12.8643V19.0057C59.2043 20.6974 58.5282 21.7726 57.958 22.3802C57.1597 23.2239 55.1883 23.5867 55.1883 23.5867C53.946 23.5867 52.7445 23.1627 51.9706 22.2578C51.4493 21.6546 50.8261 20.6099 50.8261 19.0276V12.5846C50.8261 11.0154 49.6042 9.73899 48.1053 9.73899C46.6064 9.73899 45.3886 11.0154 45.3886 12.5846V19.0276C45.3886 20.6012 44.7735 21.6415 44.2481 22.2578C43.4539 23.1714 42.4682 23.5735 41.23 23.5735C40.0732 23.5735 38.9979 23.1102 38.2037 22.2622C37.6375 21.659 36.9574 20.5793 36.9574 18.8921V12.484C36.9574 10.8973 35.7477 9.60786 34.261 9.60786C32.7743 9.60786 31.5117 10.9279 31.5117 12.484V31.0263H26.2004C24.6853 31.0263 23.5 32.2633 23.5 33.85C23.5 35.0564 24.2087 36.1274 25.2596 36.5208L25.3858 36.5645L25.5121 36.6257C25.5325 36.6344 25.7402 36.7262 26.2004 36.7262H31.1085C33.6908 36.7262 36.0654 34.8073 36.7578 32.1584L37.3687 29.8242L41.1037 30.0209C42.3012 30.0209 43.3154 29.8898 44.1259 29.6275C44.8835 29.3827 45.6248 28.9762 46.3335 28.4124L48.1094 27.0005L49.8852 28.408C50.6061 28.9806 51.3311 29.3784 52.0969 29.6231C52.9033 29.8854 54.0316 30.0515 55.115 30.0166C57.4244 29.9728 59.1758 28.8451 59.7623 28.2244L61.6767 26.1962L63.758 28.0321C63.9535 28.2069 64.1694 28.3686 64.3567 28.4823L64.4097 28.5129L64.4586 28.5479C66.0186 29.5794 67.8025 30.1171 69.7698 30.1433H76.5474V30.1695H142.718V30.1477H165.8C166.774 30.1477 168.627 29.7237 170.639 28.5347C172.411 27.4638 173.816 26.017 174.936 24.1068C176.036 22.1748 176.504 20.4744 176.504 18.4156C176.504 16.1733 176.032 14.3418 175.005 12.6239L174.997 12.6283ZM55.1639 23.5867C55.0824 23.5867 55.1272 23.5867 55.1639 23.5867V23.5867ZM70.6211 24.1068C67.8148 24.1068 65.542 21.6634 65.542 18.656C65.542 15.6487 67.8148 13.2053 70.6211 13.2053C73.4274 13.2053 75.7002 15.6444 75.7002 18.656C75.7002 21.6677 73.4274 24.1068 70.6211 24.1068ZM118.443 18.656C118.443 15.6444 120.72 13.2053 123.522 13.2053C126.324 13.2053 128.601 15.6444 128.601 18.656C128.601 21.6677 126.328 24.1068 123.522 24.1068C120.716 24.1068 118.443 21.6634 118.443 18.656ZM91.915 18.656C91.915 15.6444 94.1878 13.2053 96.9941 13.2053C99.8004 13.2053 102.073 15.6444 102.073 18.656C102.073 21.6677 99.8004 24.1068 96.9941 24.1068C94.1878 24.1068 91.915 21.6634 91.915 18.656ZM150.783 24.1068C147.976 24.1068 145.704 21.6634 145.704 18.656C145.704 15.6487 147.976 13.2053 150.783 13.2053C153.589 13.2053 155.862 15.6444 155.862 18.656C155.862 21.6677 153.585 24.1068 150.783 24.1068ZM165.93 24.1068C163.124 24.1068 160.851 21.6634 160.851 18.656C160.851 15.6487 163.128 13.2053 165.93 13.2053C168.733 13.2053 171.014 15.6444 171.014 18.656C171.014 21.6677 168.737 24.1068 165.93 24.1068Z" fill="white"/>
</g>
<g clip-path="url(#clip1_3465_50497)">
<path d="M61.2305 85.9258C60.9022 86.6246 60.3319 87.1501 59.6233 87.41C59.3237 87.5255 58.9896 87.589 58.6497 87.589C57.4688 87.589 56.3973 86.844 55.9941 85.7237L51.4949 65.7021C51.4143 65.4826 51.2069 65.2747 51.0687 64.9802C49.0409 60.5739 43.1189 60.5739 40.8837 64.9802C40.7397 65.269 40.5381 65.4826 40.4574 65.7021L35.9583 85.7237C35.5493 86.844 34.4778 87.589 33.2969 87.589C32.957 87.589 32.6229 87.5255 32.3291 87.41C31.6148 87.1501 31.0445 86.6246 30.7219 85.9258C30.3993 85.2328 30.3762 84.4821 30.6412 83.7429L35.1461 63.6924C35.6242 62.3815 36.2809 61.2092 37.099 60.1813C37.6462 59.4767 38.2741 58.8472 38.9769 58.2871L39.0691 58.212C40.227 57.2418 41.454 56.52 42.8309 55.9887C42.8424 55.9887 42.8539 55.9829 42.8654 55.9771C44.8644 55.2264 47.0823 55.2264 49.0812 55.9771C49.0927 55.9771 49.1043 55.9829 49.1158 55.9887C50.4926 56.52 51.7196 57.2418 52.8775 58.212L52.9697 58.2871C53.6725 58.8415 54.3004 59.4709 54.8477 60.1813C55.6657 61.2092 56.3224 62.3815 56.8063 63.6924L61.3112 83.7429C61.5762 84.4763 61.5474 85.2328 61.2305 85.9258Z" fill="white"/>
<path d="M163.068 87.6867C161.38 87.6867 160.009 86.3122 160.009 84.6202V58.379C160.009 56.6869 161.38 55.3125 163.068 55.3125C164.756 55.3125 166.127 56.6869 166.127 58.379V84.626C166.127 86.318 164.756 87.6924 163.068 87.6924V87.6867Z" fill="white"/>
<path d="M23.2041 55.3125C21.5162 55.3125 20.1452 56.6869 20.1452 58.379V68.1501H6.1121V58.379C6.1121 56.6869 4.74106 55.3125 3.05317 55.3125C1.36529 55.3125 0 56.6869 0 58.379V84.626C0 86.318 1.37105 87.6924 3.05893 87.6924C4.74682 87.6924 6.11786 86.318 6.11786 84.626V74.2773H20.1509V84.626C20.1509 86.318 21.522 87.6924 23.2099 87.6924C24.8977 87.6924 26.2688 86.318 26.2688 84.626V58.379C26.2688 56.6869 24.8977 55.3125 23.2099 55.3125H23.2041Z" fill="white"/>
<path d="M175.177 55.4386L194.406 55.375C197.431 55.3635 199.891 57.8236 199.891 60.8554C199.891 62.3858 199.251 63.8468 198.134 64.8805L182.827 79.0522C181.883 79.9242 182.499 81.5065 183.784 81.5065H196.953C198.635 81.5065 200 82.8752 200 84.5615C200 86.2593 198.623 87.6279 196.93 87.6164L175.223 87.4547C173.138 87.4374 171.473 85.7049 171.536 83.6144C171.583 82.1591 172.216 80.7904 173.288 79.8145L190.737 63.9046C191.676 63.0499 191.071 61.4907 189.804 61.4907H175.177C173.547 61.4907 172.21 60.1971 172.159 58.5628C172.107 56.8592 173.466 55.4443 175.166 55.4386H175.177Z" fill="white"/>
<path d="M93.2655 66.7135L91.9463 69.7107C92.6606 70.6116 93.5593 71.3623 94.5732 71.9167C94.5732 71.9167 96.8314 66.7886 96.8947 66.6673C96.1689 66.0956 95.7023 65.212 95.6965 64.2188C94.5904 64.7674 93.7436 65.6278 93.2655 66.7135Z" fill="white"/>
<path d="M83.1269 56.1676L83.3055 56.0925C84.1753 55.7576 85.074 55.5901 85.9842 55.5901C86.1397 55.5901 86.301 55.5901 86.4508 55.6017C87.2919 55.6594 88.1214 55.8673 88.8991 56.2138L89.0431 56.2831C90.4142 55.2898 91.8659 54.5737 93.4731 54.0713C93.8648 53.95 94.2681 53.8461 94.6828 53.7595H94.6886C95.3914 53.6151 96.1173 53.5285 96.8661 53.4996C96.3304 53.2628 92.6551 51.6574 92.6551 51.6574C90.5697 50.7219 88.4325 50.1617 86.4739 50.0346C86.1743 50.0115 85.8747 50 85.5752 50C84.377 50 83.2363 50.1675 82.1994 50.4909C81.2489 50.7854 79.7914 51.5708 78.9273 52.079C78.501 52.3273 78.0632 52.6218 77.6715 52.9279C76.1104 54.1406 74.8833 55.7287 74.025 57.6518L64.8021 78.6205C64.491 79.3135 64.4737 80.0815 64.7445 80.7803C65.0095 81.4906 65.5395 82.0565 66.2538 82.3857C66.5706 82.5185 66.8759 82.5936 67.1813 82.6109C67.2562 82.6167 67.3195 82.6225 67.3887 82.6225C68.4947 82.6225 69.5316 81.9526 69.981 80.9535L79.2096 59.9848C79.9643 58.2812 81.3295 56.9588 83.1326 56.1676H83.1269Z" fill="white"/>
<path d="M105.553 55.3333C105.553 55.3333 107.449 56.1649 108.002 56.4074C108.002 56.4074 109.206 55.7895 111.222 55.905C111.222 55.905 112.42 55.9801 113.278 56.2168H113.284C115.398 55.4719 118.123 54.6114 120.479 54.1494C120.209 53.8722 119.921 53.6239 119.621 53.3871L119.529 53.3121C118.371 52.3419 117.144 51.62 115.773 51.0887C114.408 50.569 113.307 50.4361 111.625 50.3495C111.527 50.3495 111.429 50.3438 111.326 50.3438C108.768 50.3438 103.986 51.9203 101.256 52.902C100.628 53.1273 100.104 53.3236 99.7466 53.4622C99.954 53.5546 103.831 54.5652 105.553 55.3333Z" fill="white"/>
<path d="M112.449 74.3914C112.449 73.7677 112.506 73.144 112.627 72.5261C112.114 72.9072 111.475 73.1267 110.79 73.1267C109.39 73.1267 108.197 72.1969 107.8 70.9206C107.708 70.6204 107.656 70.3085 107.656 69.9793C107.656 69.7252 107.685 69.4769 107.748 69.2344C107.028 69.7483 106.469 70.4298 106.112 71.2325L105.15 73.4212L104.119 75.7658C105.133 76.9266 106.446 77.8217 107.944 78.3356C108.871 78.6533 109.839 78.815 110.83 78.815C111.659 78.815 112.466 78.6995 113.226 78.4858C113.105 78.1913 113.007 77.891 112.915 77.5849C112.61 76.5858 112.449 75.5002 112.449 74.3914Z" fill="white"/>
<path d="M91.1575 65.7681C91.9179 64.0645 93.2831 62.7421 95.0862 61.9509L95.2648 61.8758C95.9619 61.6044 96.682 61.4485 97.4078 61.3907C97.5864 61.3792 98.2546 61.3792 98.4102 61.3907C99.1303 61.4369 99.8388 61.5929 100.513 61.8585C100.582 61.8007 100.651 61.743 100.72 61.6852C101.037 61.4254 101.36 61.1771 101.7 60.9403L101.734 60.9172C102.748 60.1664 103.808 59.5659 104.943 59.0923C105.288 58.9479 105.64 58.8151 106.003 58.6996C106.106 58.665 106.216 58.6303 106.325 58.5957C106.51 58.5379 106.7 58.4859 106.89 58.434C106.302 58.1799 105.686 57.9085 105.035 57.6255C104.972 57.6024 104.614 57.4407 104.614 57.4407C102.973 56.7073 101.296 56.2049 99.7063 55.9623H99.6948C99.2685 55.893 98.8422 55.8468 98.4332 55.8179C98.1337 55.7948 97.8283 55.7891 97.5345 55.7891C96.3306 55.7891 95.1957 55.9508 94.153 56.2742C93.2198 56.5629 92.3499 56.944 91.5146 57.4234C91.0826 57.6717 90.662 57.9489 90.2473 58.255C90.2473 58.255 89.1354 59.0865 88.6746 59.537C87.557 60.6111 86.6583 61.922 85.9786 63.4408L76.7499 84.4038C76.4446 85.1025 76.4273 85.8706 76.6923 86.5636C76.9631 87.2739 77.4931 87.8398 78.2074 88.169C78.5242 88.3018 78.8238 88.3769 79.1349 88.4C79.204 88.4058 79.2731 88.4058 79.3423 88.4058C80.4483 88.4058 81.4852 87.7359 81.9288 86.7368L89.3083 69.9665L90.518 67.2118L91.1575 65.7681Z" fill="white"/>
<path d="M116.015 57.7403C115.306 57.9655 114.632 58.1965 114.021 58.4102C115.174 58.6585 116.343 59.0165 117.507 59.4843C117.806 59.5998 121.47 61.1994 122.657 61.7192H122.668C122.801 61.7827 122.916 61.8347 123.037 61.8867C123.037 61.8867 129.823 59.5189 131.482 59.0974C130.324 58.133 129.103 57.4111 127.726 56.8856C126.735 56.5044 125.883 56.3312 124.846 56.2272C124.454 56.1926 124.039 56.1695 123.584 56.1464C123.486 56.1406 123.388 56.1406 123.285 56.1406C122.951 56.1406 122.576 56.1695 122.173 56.2157C120.399 56.4351 118.077 57.0819 116.02 57.7403H116.015Z" fill="white"/>
<path d="M137.001 68.6294C136.707 68.5659 136.402 68.537 136.056 68.5312H135.987C135.734 68.537 135.031 68.5832 133.493 68.9355C134.426 70.5987 134.904 72.4582 134.904 74.3928C134.904 74.5834 134.898 74.7739 134.887 74.9587C134.846 75.8943 134.691 76.8009 134.432 77.6614L137.923 86.6125C138.332 87.7271 139.397 88.472 140.584 88.472C140.918 88.472 141.258 88.4085 141.552 88.293C142.266 88.0389 142.837 87.5134 143.165 86.8146C143.482 86.1216 143.511 85.3709 143.246 84.6317L137.001 68.6294Z" fill="white"/>
<path d="M156.092 89.1575L148.269 69.1128C147.451 66.8952 146.155 65.0761 144.427 63.7074L144.334 63.6324C143.177 62.6622 141.95 61.9345 140.578 61.409C139.219 60.8893 138.113 60.7565 136.431 60.6698C136.339 60.6698 136.235 60.6641 136.137 60.6641H136.016C135.29 60.6756 134.397 60.8084 133.424 61.0163H133.418C131.494 61.4206 129.27 62.1136 127.467 62.7257C127.34 62.7719 127.208 62.8181 127.081 62.8585C126.718 62.9856 126.378 63.1069 126.062 63.2223L127.997 64.077L128.556 64.3254C128.792 64.4293 129.017 64.5506 129.23 64.6892L130.192 65.2955C130.313 65.3706 130.428 65.4515 130.538 65.5323C130.664 65.6305 130.791 65.7287 130.918 65.8268C131.315 66.156 131.695 66.5198 132.047 66.9067C133.533 66.5371 135.089 66.2253 136.028 66.2253H136.091C137.053 66.2426 137.871 66.4101 138.747 66.7739C138.862 66.8201 138.977 66.8663 139.098 66.9241L139.288 67.0165C141.034 67.9289 142.301 69.3438 142.958 71.1167L150.769 91.1383C151.178 92.2528 152.25 93.0036 153.436 93.0036C153.77 93.0036 154.105 92.9401 154.404 92.8246C155.118 92.5647 155.689 92.0392 156.011 91.3404C156.328 90.6532 156.357 89.8967 156.092 89.1575Z" fill="white"/>
<path d="M132.381 72.4167C132.185 71.5389 131.857 70.7016 131.407 69.9162C131.407 69.9162 131.402 69.9162 131.402 69.9104L131.16 69.5235C131.05 69.3502 130.935 69.177 130.808 69.0095C130.416 68.4955 129.961 68.022 129.449 67.6062C129.414 67.5773 129.379 67.5485 129.345 67.5254C128.924 67.1327 127.455 66.4108 127.455 66.4108H127.45L126.223 65.868C126.223 65.868 118.037 62.2182 117.691 62.0681C117.691 62.0681 116.902 61.7216 116.62 61.6119H116.614C116.366 61.5137 116.124 61.4213 115.876 61.3347H115.871C114.309 60.7803 112.743 60.4395 111.279 60.3414H111.228C110.951 60.324 110.663 60.3125 110.381 60.3125C110.07 60.3125 109.764 60.324 109.465 60.3414C109.188 60.3645 108.923 60.3933 108.658 60.4338H108.652C108.134 60.5088 107.633 60.6186 107.155 60.7572C107.103 60.7745 107.057 60.786 107.005 60.8034C105.588 61.2423 104.315 61.8833 103.099 62.7784C103.099 62.7784 102.235 63.4194 101.93 63.6966C101.59 63.9853 101.267 64.3087 100.973 64.6437C100.253 65.4348 99.6428 66.33 99.1416 67.3232C99.0321 67.5311 98.9284 67.7448 98.8305 67.9643L96.7163 72.7632L95.7773 74.8999L89.6018 88.933C89.2965 89.626 89.2735 90.394 89.5442 91.0928C89.8092 91.8031 90.3392 92.369 91.0535 92.6924C91.3704 92.831 91.6757 92.9061 91.981 92.9234C92.0559 92.9292 92.1193 92.935 92.1942 92.935C93.2945 92.935 94.3314 92.2651 94.7807 91.2603L101.463 76.078L101.982 74.8999L102.638 73.4042L103.33 71.8335L104.009 70.2915C104.689 68.7612 105.853 67.5427 107.391 66.74C107.569 66.6476 107.748 66.561 107.932 66.4801L108.111 66.405C108.71 66.174 109.321 66.0239 109.943 65.9488C110.225 65.9199 110.507 65.9026 110.79 65.9026C110.945 65.9026 111.107 65.9026 111.256 65.9142C112.097 65.9661 112.927 66.1798 113.71 66.5205L117.34 68.2126C115.715 69.9335 114.753 72.2146 114.753 74.3917C114.753 75.2695 114.88 76.13 115.128 76.9327C115.191 77.1521 115.266 77.3716 115.352 77.5853C115.623 78.3187 115.992 79.0001 116.441 79.6238C117.507 81.1137 119.022 82.2572 120.79 82.8578C121.718 83.1812 122.691 83.3428 123.676 83.3428C124.057 83.3428 124.425 83.3197 124.794 83.2678C125.768 83.1523 126.689 82.8751 127.536 82.4651H127.542C129.12 81.7028 130.439 80.4958 131.338 78.9943C131.58 78.5843 131.793 78.1512 131.972 77.7008C132.231 77.0482 132.415 76.3552 132.508 75.6333C132.548 75.3561 132.577 75.0905 132.588 74.8133C132.6 74.6747 132.6 74.5361 132.6 74.3917C132.6 73.7161 132.525 73.0577 132.381 72.4167ZM123.642 78.0992C121.66 78.0992 120.053 76.4938 120.053 74.5072C120.053 72.5207 121.66 70.9152 123.642 70.9152C125.624 70.9152 127.225 72.5207 127.225 74.5072C127.225 76.4938 125.618 78.0992 123.642 78.0992Z" fill="white"/>
</g>
<defs>
<clipPath id="clip0_3465_50497">
<rect width="153" height="40" fill="white" transform="translate(23.5)"/>
</clipPath>
<clipPath id="clip1_3465_50497">
<rect width="200" height="43" fill="white" transform="translate(0 50)"/>
</clipPath>
</defs>
</svg>
