<svg width="200" height="200" viewBox="0 0 200 200" fill="none" xmlns="http://www.w3.org/2000/svg">
<g clip-path="url(#clip0_3505_67370)">
<path d="M99.998 2.5H100.002C153.849 2.5001 197.5 46.1514 197.5 99.998V100.002C197.5 153.849 153.849 197.5 100.002 197.5H99.998C46.1514 197.5 2.5001 153.849 2.5 100.002V99.998C2.50011 46.1514 46.1514 2.50011 99.998 2.5Z" fill="#F87A08" stroke="white" stroke-width="5"/>
<path d="M117.47 83.1415C116.618 82.0253 115.632 81.0077 114.526 80.1063C113.688 79.4127 112.769 78.7824 111.787 78.2261L103.305 74.4867L100.829 73.3881L100.956 73.3353C100.618 73.1874 99.1217 72.5325 99.1217 72.5325C95.8295 71.0889 92.0971 69.4551 87.7099 67.5502L87.1782 67.3143C82.5128 65.2334 77.7242 63.9763 73.3334 63.6841C72.7102 63.6383 72.0447 63.6172 71.3475 63.6172C68.6926 63.6172 66.1927 63.9763 63.911 64.6876C60.7667 65.6594 57.9393 67.089 55.2844 69.0431L55.1612 69.1347L55.0203 69.2298C51.0169 71.9868 47.9148 75.7825 45.8022 80.4972L24.5349 128.711C23.9575 130.01 23.9223 131.451 24.4293 132.774C24.9399 134.123 25.9258 135.165 27.2814 135.788C27.8729 136.038 28.4433 136.183 29.0349 136.222C29.1722 136.232 29.2919 136.239 29.4151 136.239C31.4961 136.239 33.4573 134.975 34.2953 133.105L55.5661 84.8879C57.4323 80.6944 60.7737 77.4515 65.242 75.5008L65.6856 75.3177C67.8335 74.4973 70.0517 74.0818 72.2841 74.0818C72.7559 74.0818 73.1186 74.0924 73.4355 74.117C75.4988 74.2473 77.5375 74.7508 79.5129 75.624L89.3894 80.2049L88.2486 81.4091C84.7205 85.1274 82.6149 90.1343 82.6149 94.8033C82.6149 96.7082 82.886 98.5567 83.4248 100.31C85.1923 106.321 89.7908 111.116 95.7238 113.137C97.7238 113.831 99.8364 114.183 101.995 114.183C112.364 114.183 120.864 106.067 121.343 95.6835C121.361 95.423 121.371 95.1342 121.371 94.8033C121.371 90.5639 120.023 86.5323 117.477 83.145L117.47 83.1415ZM101.903 103.483C97.2555 103.483 93.4774 99.7046 93.4774 95.0603C93.4774 90.416 97.2555 86.6344 101.903 86.6344C106.551 86.6344 110.322 90.4125 110.322 95.0603C110.322 99.7081 106.544 103.483 101.903 103.483Z" fill="white"/>
<path d="M117.47 83.1415C116.618 82.0253 115.632 81.0077 114.526 80.1063C113.688 79.4127 112.769 78.7824 111.787 78.2261L103.305 74.4867L100.829 73.3881L100.956 73.3353C100.618 73.1874 99.1217 72.5325 99.1217 72.5325C95.8295 71.0889 92.0971 69.4551 87.7099 67.5502L87.1782 67.3143C82.5128 65.2334 77.7242 63.9763 73.3334 63.6841C72.7102 63.6383 72.0447 63.6172 71.3475 63.6172C68.6926 63.6172 66.1927 63.9763 63.911 64.6876C60.7667 65.6594 57.9393 67.089 55.2844 69.0431L55.1612 69.1347L55.0203 69.2298C51.0169 71.9868 47.9148 75.7825 45.8022 80.4972L24.5349 128.711C23.9575 130.01 23.9223 131.451 24.4293 132.774C24.9399 134.123 25.9258 135.165 27.2814 135.788C27.8729 136.038 28.4433 136.183 29.0349 136.222C29.1722 136.232 29.2919 136.239 29.4151 136.239C31.4961 136.239 33.4573 134.975 34.2953 133.105L55.5661 84.8879C57.4323 80.6944 60.7737 77.4515 65.242 75.5008L65.6856 75.3177C67.8335 74.4973 70.0517 74.0818 72.2841 74.0818C72.7559 74.0818 73.1186 74.0924 73.4355 74.117C75.4988 74.2473 77.5375 74.7508 79.5129 75.624L89.3894 80.2049L88.2486 81.4091C84.7205 85.1274 82.6149 90.1343 82.6149 94.8033C82.6149 96.7082 82.886 98.5567 83.4248 100.31C85.1923 106.321 89.7908 111.116 95.7238 113.137C97.7238 113.831 99.8364 114.183 101.995 114.183C112.364 114.183 120.864 106.067 121.343 95.6835C121.361 95.423 121.371 95.1342 121.371 94.8033C121.371 90.5639 120.023 86.5323 117.477 83.145L117.47 83.1415ZM101.903 103.483C97.2555 103.483 93.4774 99.7046 93.4774 95.0603C93.4774 90.416 97.2555 86.6344 101.903 86.6344C106.551 86.6344 110.322 90.4125 110.322 95.0603C110.322 99.7081 106.544 103.483 101.903 103.483Z" fill="white"/>
<path d="M175.437 133.261C174.824 134.567 173.747 135.556 172.405 136.035L172.377 136.046C171.824 136.264 171.201 136.377 170.574 136.377C168.342 136.377 166.321 134.972 165.557 132.877L147.533 86.8143C145.934 82.4904 142.814 79.0081 138.522 76.7652L138.05 76.5434C135.572 75.392 133.29 74.8638 130.642 74.818L130.48 74.8075H130.452C127.6 74.8075 122.639 75.9553 118.755 76.9835C118.061 76.3532 117.322 75.7546 116.547 75.1983C115.185 74.223 113.678 73.3603 112.079 72.6491L109.572 71.5329C109.385 71.4484 109.195 71.3639 108.994 71.2758C108.709 71.1491 108.41 71.0188 108.1 70.878C107.801 70.7477 107.495 70.6139 107.181 70.473C112.91 68.3956 124.698 64.4062 130.698 64.4062C130.92 64.4062 131.138 64.4168 131.346 64.4203C135.177 64.607 137.533 64.8992 140.515 66.04C143.557 67.209 146.283 68.8111 148.839 70.9519L149.068 71.135C152.892 74.1596 155.744 78.1595 157.55 83.0468L175.588 129.145C176.081 130.532 176.029 131.954 175.437 133.254V133.261Z" fill="white"/>
<path d="M175.437 133.261C174.824 134.567 173.747 135.556 172.405 136.035L172.377 136.046C171.824 136.264 171.201 136.377 170.574 136.377C168.342 136.377 166.321 134.972 165.557 132.877L147.533 86.8143C145.934 82.4904 142.814 79.0081 138.522 76.7652L138.05 76.5434C135.572 75.392 133.29 74.8638 130.642 74.818L130.48 74.8075H130.452C127.6 74.8075 122.639 75.9553 118.755 76.9835C118.061 76.3532 117.322 75.7546 116.547 75.1983C115.185 74.223 113.678 73.3603 112.079 72.6491L109.572 71.5329C109.385 71.4484 109.195 71.3639 108.994 71.2758C108.709 71.1491 108.41 71.0188 108.1 70.878C107.801 70.7477 107.495 70.6139 107.181 70.473C112.91 68.3956 124.698 64.4062 130.698 64.4062C130.92 64.4062 131.138 64.4168 131.346 64.4203C135.177 64.607 137.533 64.8992 140.515 66.04C143.557 67.209 146.283 68.8111 148.839 70.9519L149.068 71.135C152.892 74.1596 155.744 78.1595 157.55 83.0468L175.588 129.145C176.081 130.532 176.029 131.954 175.437 133.254V133.261Z" fill="white"/>
</g>
<defs>
<clipPath id="clip0_3505_67370">
<rect width="200" height="200" fill="white"/>
</clipPath>
</defs>
</svg>
