<svg width="115" height="87" viewBox="0 0 115 87" fill="none" xmlns="http://www.w3.org/2000/svg">
<circle cx="57.5" cy="27.1406" r="27.1406" fill="#F87A08"/>
<path d="M55.6324 15.6061C54.941 15.9252 53.684 16.627 52.8355 17.2012C51.9556 17.7436 51.0442 18.1902 50.7928 18.1902C50.51 18.1902 49.5044 17.6798 48.5616 17.0736C46.6132 15.7976 44.8848 15.6061 44.0678 16.5313C43.3764 17.3289 42.9679 19.4025 42.7479 23.4541C42.6222 25.4001 42.4965 27.2823 42.4022 27.6651C42.2765 28.3351 42.3708 28.3989 43.4707 28.3989H44.6963L44.8848 24.794C45.1676 20.0724 45.4191 18.1902 45.8276 18.1902C46.0161 18.1902 46.8646 18.6687 47.7445 19.2111C49.9443 20.6467 51.8927 20.6786 53.904 19.2749C54.6896 18.7326 55.7581 18.0626 56.3237 17.7755L57.2979 17.2331L57.9579 19.2111C58.335 20.2958 58.6178 21.2847 58.6178 21.4442C58.6178 21.7952 56.3552 23.2946 55.7895 23.2946C55.5067 23.2946 54.5325 22.7841 53.5897 22.178C51.9242 21.0933 50.1643 20.7424 49.3158 21.3166C48.4045 21.9228 47.9017 24.4749 47.4617 30.8554L47.3046 33.5032H49.8186V31.1744C49.8186 28.7817 50.3529 23.5817 50.6357 23.3265C50.73 23.2308 51.1699 23.3903 51.6413 23.6774C54.2182 25.3044 54.9724 25.5915 56.198 25.432C56.8894 25.3363 57.8636 24.9535 58.3664 24.5706C58.8692 24.1878 59.3406 23.9326 59.372 23.9964C59.4349 24.0283 59.6549 24.9854 59.8748 26.0381L60.2519 28.0161L61.2261 27.729C61.729 27.6013 62.2318 27.4099 62.2946 27.3142C62.3575 27.2504 62.2003 26.3253 61.9489 25.2725C61.3204 22.9117 61.3204 22.7841 61.9175 22.5289C62.2632 22.4013 62.546 22.8798 63.0174 24.443C63.3631 25.6234 63.6459 26.6762 63.6459 26.8357C63.6459 26.9633 63.0174 27.4737 62.2632 27.9204C60.7233 28.8136 60.2205 28.7498 58.335 27.3142C56.0409 25.5915 53.904 26.0062 53.3069 28.3351C52.9926 29.5155 52.3327 35.8959 52.3327 37.8738C52.3327 38.8628 52.3955 38.9266 53.4012 38.9266H54.4696L54.6582 36.1192C54.941 32.3867 55.381 28.7179 55.601 28.4946C55.6952 28.3989 56.5437 28.8455 57.5179 29.5155C59.592 30.983 61.3518 31.1425 63.0803 30.0578C63.7088 29.675 64.2744 29.356 64.3687 29.356C64.4316 29.356 64.6201 30.0259 64.7458 30.8235C64.8401 31.6529 65.0286 32.4824 65.0915 32.6738C65.2486 33.0885 67.0085 32.9928 67.2599 32.5462C67.3227 32.4186 67.1342 31.3658 66.8199 30.1854C66.3171 28.3032 66.2857 28.0161 66.6942 27.8566C66.9456 27.7609 67.2913 27.8566 67.417 28.0799C67.7312 28.5903 69.5854 35.6407 69.8368 37.2358C70.0253 38.3205 70.0567 38.3205 71.1566 38.1291C71.7852 38.0014 72.3194 37.8738 72.3508 37.8419C72.4765 37.7462 70.6224 30.6959 69.8996 28.5265C69.0826 26.0062 68.454 25.4001 66.8199 25.6234C65.6257 25.7829 65.5943 25.751 65.3743 24.6982C65.0601 22.9117 64.0545 20.8062 63.3631 20.4234C62.986 20.232 62.2318 20.1681 61.6661 20.2639C60.9957 20.3915 60.4719 19.8066 60.0948 18.5092C59.4977 16.4356 58.3978 15 57.4551 15C57.1408 15 56.3237 15.2871 55.6324 15.6061ZM60.7862 21.0933C61.6975 21.4123 59.6077 20.2639 59.1678 20.7424C58.9164 21.0295 58.445 22.111 58.3193 22.5895C58.0993 23.4509 60.4405 24.2197 59.6234 23.7093C59.1521 23.4222 58.7121 23.135 58.6492 23.0712C58.5864 23.0074 58.7435 22.7203 59.0264 22.4013C59.3406 22.0823 59.4663 21.7314 59.372 21.6037C59.2149 21.4442 59.4663 20.7424 59.6863 20.7424C59.7491 20.7424 60.2205 20.9019 60.7862 21.0933ZM64.4881 28.2107C64.8652 28.4659 65.3995 29.0976 64.9595 29.608C64.6767 29.927 66.3548 28.8041 66.3988 28.8041L64.9595 28.0799L65.5315 26.9474C64.6515 26.2455 63.5831 28.1437 64.1173 27.3142C64.4316 26.8676 64.5573 26.4848 64.463 26.4848C64.3373 26.4848 64.3373 26.3253 64.4316 26.1657C64.6201 25.8467 63.294 27.4131 64.4881 28.2107Z" fill="white" fill-opacity="0.89"/>
<path d="M13.206 75.2812C13.0247 75.2812 12.8913 75.2759 12.806 75.2652C12.8487 76.3106 12.5767 77.1213 11.99 77.6973C11.414 78.2839 10.5073 78.7479 9.27 79.0893L8.278 79.3773L7.75 77.1853L8.742 76.8973C9.49933 76.6946 10.0273 76.4866 10.326 76.2733C10.6353 76.0599 10.79 75.7346 10.79 75.2973C10.79 75.2226 10.7793 75.0999 10.758 74.9292L10.118 70.3372L12.118 70.0332L12.23 70.8972C12.262 71.0359 12.3367 71.4519 12.454 72.1452C12.518 72.4972 12.6033 72.7319 12.71 72.8492C12.8167 72.9559 12.982 73.0092 13.206 73.0092H13.286L13.414 74.1452L13.286 75.2812H13.206ZM26.2896 75.2812C25.543 75.2812 24.823 75.0306 24.1296 74.5292C23.8416 74.7639 23.5163 74.9506 23.1536 75.0892C22.8016 75.2172 22.439 75.2812 22.0656 75.2812H16.9776C16.359 75.2812 15.8203 75.0626 15.3616 74.6252C14.7963 75.0412 14.0976 75.2599 13.2656 75.2812H13.1856V73.0092H13.2656C13.671 73.0092 13.975 72.9452 14.1776 72.8172C14.391 72.6786 14.5136 72.4386 14.5456 72.0972L14.7216 70.1132L16.7376 70.3052L16.5616 72.2732C16.5403 72.5399 16.567 72.7319 16.6416 72.8492C16.7163 72.9559 16.839 73.0092 17.0096 73.0092L18.0016 71.6332C18.599 70.8119 19.0843 70.1879 19.4576 69.7612C19.831 69.3346 20.2256 69.0039 20.6416 68.7692C21.0576 68.5346 21.5323 68.4172 22.0656 68.4172C22.6843 68.4172 23.2443 68.5772 23.7456 68.8972C24.2576 69.2066 24.6576 69.6332 24.9456 70.1772C25.2336 70.7106 25.3776 71.3079 25.3776 71.9692C25.3776 72.2252 25.3456 72.4759 25.2816 72.7212C25.5803 72.9132 25.9163 73.0092 26.2896 73.0092H26.5136L26.6416 74.1452L26.5136 75.2812H26.2896ZM22.0656 73.0092C22.4283 73.0092 22.7323 72.9026 22.9776 72.6892C23.223 72.4652 23.3456 72.1932 23.3456 71.8732C23.3456 71.5426 23.2336 71.2652 23.0096 71.0412C22.7856 70.8066 22.4923 70.6892 22.1296 70.6892C21.8736 70.6892 21.639 70.7532 21.4256 70.8812C21.2123 71.0092 20.9776 71.2279 20.7216 71.5372C20.4656 71.8359 20.119 72.2946 19.6816 72.9132L19.6176 73.0092H22.0656ZM26.3575 73.0092H26.6455C27.4348 73.0092 28.0908 72.9879 28.6135 72.9452L27.0135 70.8012L27.5895 69.0252L31.4935 68.4492C31.6428 68.4279 31.7602 68.4172 31.8455 68.4172C32.2828 68.4172 32.6828 68.5346 33.0455 68.7692C33.4188 69.0039 33.7122 69.3186 33.9255 69.7132C34.1388 70.1079 34.2455 70.5239 34.2455 70.9612C34.2455 71.3026 34.1815 71.6332 34.0535 71.9532C33.9148 72.3159 33.6695 72.6626 33.3175 72.9932C33.6162 73.0039 34.1335 73.0092 34.8695 73.0092L34.9975 74.1452L34.8695 75.2812C33.6428 75.2812 32.6935 75.2439 32.0215 75.1692C31.3602 75.0946 30.7788 74.9239 30.2775 74.6572C29.0508 75.0732 27.8402 75.2812 26.6455 75.2812H26.3575V73.0092ZM30.9015 72.4812C31.7655 72.1399 32.2775 71.5852 32.4375 70.8172L32.4695 70.6892C32.4695 70.6039 32.4375 70.5399 32.3735 70.4972C32.3202 70.4546 32.2508 70.4386 32.1655 70.4492L29.5415 70.7692L30.9015 72.4812ZM34.7169 73.0092H37.5329C37.9489 73.0092 38.2315 72.9559 38.3809 72.8492C38.5302 72.7426 38.5942 72.5612 38.5729 72.3052V72.2732L38.3969 70.3052L40.4129 70.1132L40.5889 72.0812V72.1772C40.6315 72.5186 40.7169 72.7426 40.8449 72.8492C40.9835 72.9559 41.2449 73.0092 41.6289 73.0092L41.7569 74.1452L41.6289 75.2812C40.7969 75.2812 40.1249 75.0679 39.6129 74.6412C39.0689 75.0679 38.3755 75.2812 37.5329 75.2812H34.7169V73.0092ZM33.7409 76.7373H35.6129V78.5933H33.7409V76.7373ZM37.0209 76.7373H38.8929V78.5933H37.0209V76.7373ZM41.4669 73.0092H41.8349C42.2509 73.0092 42.5282 72.9399 42.6669 72.8012C42.8162 72.6626 42.8855 72.4652 42.8749 72.2092L42.5709 64.2892L44.5869 64.1932L44.8909 72.1132C44.9229 72.6999 44.8215 73.2332 44.5869 73.7132C44.3522 74.1932 44.0002 74.5772 43.5309 74.8652C43.0615 75.1426 42.4962 75.2812 41.8349 75.2812H41.4669V73.0092ZM47.3995 77.1693C48.6582 76.9133 49.5435 76.7106 50.0555 76.5613C50.5675 76.4119 50.9195 76.2359 51.1115 76.0333C51.3035 75.8306 51.3942 75.5373 51.3835 75.1532C50.8928 75.2386 50.3222 75.2812 49.6715 75.2812C49.0742 75.2812 48.5408 75.1426 48.0715 74.8652C47.6022 74.5879 47.2342 74.1986 46.9675 73.6972C46.7115 73.1959 46.5835 72.6306 46.5835 72.0012C46.5835 71.3719 46.7168 70.7852 46.9835 70.2412C47.2608 69.6866 47.6395 69.2439 48.1195 68.9132C48.6102 68.5826 49.1542 68.4172 49.7515 68.4172C50.6582 68.4172 51.4155 68.7586 52.0235 69.4412C52.6315 70.1132 52.9942 70.9986 53.1115 72.0972L53.3835 74.6892C53.4048 74.8599 53.4155 75.0946 53.4155 75.3933C53.4155 76.2039 53.2288 76.8493 52.8555 77.3293C52.4822 77.8199 51.9062 78.2093 51.1275 78.4973C50.3488 78.7959 49.2395 79.0893 47.7995 79.3773L47.3995 77.1693ZM48.6155 72.0172C48.6155 72.6786 48.9675 73.0092 49.6715 73.0092C50.2155 73.0092 50.7115 72.9719 51.1595 72.8972L51.1115 72.3852C51.0582 71.8412 50.9142 71.4252 50.6795 71.1372C50.4448 70.8386 50.1462 70.6892 49.7835 70.6892C49.4208 70.6892 49.1328 70.8172 48.9195 71.0732C48.7168 71.3292 48.6155 71.6439 48.6155 72.0172ZM63.2373 75.2812C63.0559 75.2812 62.9226 75.2759 62.8373 75.2652C62.8799 76.3106 62.6079 77.1213 62.0213 77.6973C61.4453 78.2839 60.5386 78.7479 59.3013 79.0893L58.3092 79.3773L57.7812 77.1853L58.7733 76.8973C59.5306 76.6946 60.0586 76.4866 60.3573 76.2733C60.6666 76.0599 60.8213 75.7346 60.8213 75.2973C60.8213 75.2226 60.8106 75.0999 60.7893 74.9292L60.1493 70.3372L62.1493 70.0332L62.2613 70.8972C62.2933 71.0359 62.3679 71.4519 62.4852 72.1452C62.5493 72.4972 62.6346 72.7319 62.7413 72.8492C62.8479 72.9559 63.0133 73.0092 63.2373 73.0092H63.3173L63.4453 74.1452L63.3173 75.2812H63.2373ZM59.9573 66.2892H62.0533V68.4012H59.9573V66.2892ZM63.2169 73.0092H66.0329C66.4489 73.0092 66.7315 72.9559 66.8809 72.8492C67.0302 72.7426 67.0942 72.5612 67.0729 72.3052V72.2732L66.8969 70.3052L68.9129 70.1132L69.0889 72.0812V72.1772C69.1315 72.5186 69.2169 72.7426 69.3449 72.8492C69.4835 72.9559 69.7449 73.0092 70.1289 73.0092L70.2569 74.1452L70.1289 75.2812C69.2969 75.2812 68.6249 75.0679 68.1129 74.6412C67.5689 75.0679 66.8755 75.2812 66.0329 75.2812H63.2169V73.0092ZM63.6969 76.7373H65.5689V78.5933H63.6969V76.7373ZM66.9769 76.7373H68.8489V78.5933H66.9769V76.7373ZM79.1669 75.2812C78.2602 75.2812 77.5455 74.9772 77.0229 74.3692C76.8202 74.6786 76.5589 74.9239 76.2389 75.1052C75.9295 75.2759 75.5989 75.3613 75.2469 75.3613C74.9269 75.3613 74.6069 75.2812 74.2869 75.1212L72.4949 74.1932C71.8655 74.9186 71.0815 75.2812 70.1429 75.2812H69.9669V73.0092H70.1429C70.4095 73.0092 70.6442 72.9559 70.8469 72.8492C71.0602 72.7319 71.2255 72.5772 71.3429 72.3852L72.5589 70.0012C72.7935 69.5426 73.1295 69.1852 73.5669 68.9292C74.0149 68.6732 74.4949 68.5452 75.0069 68.5452C75.4869 68.5452 75.9242 68.6519 76.3189 68.8652C76.8309 69.1426 77.2095 69.5052 77.4549 69.9532C77.7109 70.4012 77.8389 70.9132 77.8389 71.4892C77.8389 71.7772 77.8069 72.0759 77.7429 72.3852C77.8602 72.5772 78.0415 72.7319 78.2869 72.8492C78.5322 72.9559 78.8255 73.0092 79.1669 73.0092L79.2949 74.1452L79.1669 75.2812ZM75.5029 73.1852C75.5562 73.2172 75.5882 73.2332 75.5989 73.2332C75.6202 73.2332 75.6415 73.2119 75.6629 73.1693L75.8549 72.6892C75.9935 72.3799 76.0629 72.0812 76.0629 71.7932C76.0629 71.5586 76.0149 71.3559 75.9189 71.1852C75.8229 71.0039 75.6842 70.8706 75.5029 70.7852C75.3642 70.7106 75.2095 70.6732 75.0389 70.6732C74.8469 70.6732 74.6602 70.7319 74.4789 70.8492C74.3082 70.9559 74.1695 71.1212 74.0629 71.3452L73.6149 72.2412L75.5029 73.1852ZM88.0575 75.2812C87.1508 75.2812 86.4362 74.9772 85.9135 74.3692C85.7108 74.6786 85.4495 74.9239 85.1295 75.1052C84.8202 75.2759 84.4895 75.3613 84.1375 75.3613C83.8175 75.3613 83.4975 75.2812 83.1775 75.1212L81.3855 74.1932C80.7562 74.9186 79.9722 75.2812 79.0335 75.2812H78.8575V73.0092H79.0335C79.3002 73.0092 79.5348 72.9559 79.7375 72.8492C79.9508 72.7319 80.1162 72.5772 80.2335 72.3852L81.4495 70.0012C81.6842 69.5426 82.0202 69.1852 82.4575 68.9292C82.9055 68.6732 83.3855 68.5452 83.8975 68.5452C84.3775 68.5452 84.8148 68.6519 85.2095 68.8652C85.7215 69.1426 86.1002 69.5052 86.3455 69.9532C86.6015 70.4012 86.7295 70.9132 86.7295 71.4892C86.7295 71.7772 86.6975 72.0759 86.6335 72.3852C86.7508 72.5772 86.9322 72.7319 87.1775 72.8492C87.4228 72.9559 87.7162 73.0092 88.0575 73.0092L88.1855 74.1452L88.0575 75.2812ZM84.3935 73.1852C84.4468 73.2172 84.4788 73.2332 84.4895 73.2332C84.5108 73.2332 84.5322 73.2119 84.5535 73.1693L84.7455 72.6892C84.8842 72.3799 84.9535 72.0812 84.9535 71.7932C84.9535 71.5586 84.9055 71.3559 84.8095 71.1852C84.7135 71.0039 84.5748 70.8706 84.3935 70.7852C84.2548 70.7106 84.1002 70.6732 83.9295 70.6732C83.7375 70.6732 83.5508 70.7319 83.3695 70.8492C83.1988 70.9559 83.0602 71.1212 82.9535 71.3452L82.5055 72.2412L84.3935 73.1852ZM96.9481 75.2812C96.0415 75.2812 95.3268 74.9772 94.8041 74.3692C94.6015 74.6786 94.3401 74.9239 94.0201 75.1052C93.7108 75.2759 93.3801 75.3613 93.0281 75.3613C92.7081 75.3613 92.3881 75.2812 92.0681 75.1212L90.2761 74.1932C89.6468 74.9186 88.8628 75.2812 87.9241 75.2812H87.7481V73.0092H87.9241C88.1908 73.0092 88.4255 72.9559 88.6281 72.8492C88.8415 72.7319 89.0068 72.5772 89.1241 72.3852L90.3401 70.0012C90.5748 69.5426 90.9108 69.1852 91.3481 68.9292C91.7961 68.6732 92.2761 68.5452 92.7881 68.5452C93.2681 68.5452 93.7055 68.6519 94.1001 68.8652C94.6121 69.1426 94.9908 69.5052 95.2361 69.9532C95.4921 70.4012 95.6201 70.9132 95.6201 71.4892C95.6201 71.7772 95.5881 72.0759 95.5241 72.3852C95.6415 72.5772 95.8228 72.7319 96.0681 72.8492C96.3135 72.9559 96.6068 73.0092 96.9481 73.0092L97.0761 74.1452L96.9481 75.2812ZM93.2841 73.1852C93.3375 73.2172 93.3695 73.2332 93.3801 73.2332C93.4015 73.2332 93.4228 73.2119 93.4441 73.1693L93.6361 72.6892C93.7748 72.3799 93.8441 72.0812 93.8441 71.7932C93.8441 71.5586 93.7961 71.3559 93.7001 71.1852C93.6041 71.0039 93.4655 70.8706 93.2841 70.7852C93.1455 70.7106 92.9908 70.6732 92.8201 70.6732C92.6281 70.6732 92.4415 70.7319 92.2601 70.8492C92.0895 70.9559 91.9508 71.1212 91.8441 71.3452L91.3961 72.2412L93.2841 73.1852ZM96.6387 73.0092H97.6148H97.9828C97.4921 72.4226 97.2467 71.7399 97.2467 70.9612C97.2467 70.4812 97.3534 70.0119 97.5668 69.5532C97.8334 68.9879 98.2174 68.5452 98.7188 68.2252L99.3748 66.8172L105.023 69.7932C105.545 70.0599 105.956 70.4546 106.255 70.9772C106.553 71.4892 106.703 72.0386 106.703 72.6252C106.703 73.0732 106.607 73.5052 106.415 73.9212C106.148 74.4759 105.775 74.9079 105.295 75.2172C104.815 75.5266 104.297 75.6813 103.743 75.6813C103.295 75.6813 102.884 75.5906 102.511 75.4093L100.783 74.6092C99.8334 75.0572 98.7774 75.2812 97.6148 75.2812H96.6387V73.0092ZM99.4868 70.4492C99.4014 70.5879 99.3588 70.7532 99.3588 70.9452C99.3588 71.1159 99.4068 71.2759 99.5028 71.4252C99.5988 71.5746 99.7428 71.6972 99.9348 71.7932L100.767 72.2092C101.001 71.9959 101.183 71.7399 101.311 71.4412C101.375 71.2919 101.407 71.1479 101.407 71.0092C101.407 70.8279 101.359 70.6572 101.263 70.4972C101.177 70.3266 101.049 70.1932 100.879 70.0972L100.815 70.0652C100.665 69.9906 100.505 69.9532 100.335 69.9532C100.153 69.9532 99.9881 70.0012 99.8388 70.0972C99.6894 70.1826 99.5721 70.2999 99.4868 70.4492ZM103.327 73.4732C103.476 73.5372 103.625 73.5692 103.775 73.5692C103.956 73.5692 104.121 73.5266 104.271 73.4412C104.431 73.3452 104.548 73.2172 104.623 73.0572C104.687 72.9292 104.719 72.7959 104.719 72.6572C104.719 72.4866 104.665 72.3212 104.559 72.1612C104.463 72.0012 104.319 71.8732 104.127 71.7772L103.407 71.4092C103.353 71.7826 103.263 72.1026 103.135 72.3692C103.028 72.6039 102.873 72.8652 102.671 73.1532L103.327 73.4732Z" fill="#525252"/>
</svg>
