<svg width="115" height="87" viewBox="0 0 115 87" fill="none" xmlns="http://www.w3.org/2000/svg">
<circle cx="57.5" cy="27.1406" r="27.1406" fill="#F87A08"/>
<path d="M55.6324 15.6061C54.941 15.9252 53.684 16.627 52.8355 17.2012C51.9556 17.7436 51.0442 18.1902 50.7928 18.1902C50.51 18.1902 49.5044 17.6798 48.5616 17.0736C46.6132 15.7976 44.8848 15.6061 44.0678 16.5313C43.3764 17.3289 42.9679 19.4025 42.7479 23.4541C42.6222 25.4001 42.4965 27.2823 42.4022 27.6651C42.2765 28.3351 42.3708 28.3989 43.4707 28.3989H44.6963L44.8848 24.794C45.1676 20.0724 45.4191 18.1902 45.8276 18.1902C46.0161 18.1902 46.8646 18.6687 47.7445 19.2111C49.9443 20.6467 51.8927 20.6786 53.904 19.2749C54.6896 18.7326 55.7581 18.0626 56.3237 17.7755L57.2979 17.2331L57.9579 19.2111C58.335 20.2958 58.6178 21.2847 58.6178 21.4442C58.6178 21.7952 56.3552 23.2946 55.7895 23.2946C55.5067 23.2946 54.5325 22.7841 53.5897 22.178C51.9242 21.0933 50.1643 20.7424 49.3158 21.3166C48.4045 21.9228 47.9017 24.4749 47.4617 30.8554L47.3046 33.5032H49.8186V31.1744C49.8186 28.7817 50.3529 23.5817 50.6357 23.3265C50.73 23.2308 51.1699 23.3903 51.6413 23.6774C54.2182 25.3044 54.9724 25.5915 56.198 25.432C56.8894 25.3363 57.8636 24.9535 58.3664 24.5706C58.8692 24.1878 59.3406 23.9326 59.372 23.9964C59.4349 24.0283 59.6549 24.9854 59.8748 26.0381L60.2519 28.0161L61.2261 27.729C61.729 27.6013 62.2318 27.4099 62.2946 27.3142C62.3575 27.2504 62.2003 26.3253 61.9489 25.2725C61.3204 22.9117 61.3204 22.7841 61.9175 22.5289C62.2632 22.4013 62.546 22.8798 63.0174 24.443C63.3631 25.6234 63.6459 26.6762 63.6459 26.8357C63.6459 26.9633 63.0174 27.4737 62.2632 27.9204C60.7233 28.8136 60.2205 28.7498 58.335 27.3142C56.0409 25.5915 53.904 26.0062 53.3069 28.3351C52.9926 29.5155 52.3327 35.8959 52.3327 37.8738C52.3327 38.8628 52.3955 38.9266 53.4012 38.9266H54.4696L54.6582 36.1192C54.941 32.3867 55.381 28.7179 55.601 28.4946C55.6952 28.3989 56.5437 28.8455 57.5179 29.5155C59.592 30.983 61.3518 31.1425 63.0803 30.0578C63.7088 29.675 64.2744 29.356 64.3687 29.356C64.4316 29.356 64.6201 30.0259 64.7458 30.8235C64.8401 31.6529 65.0286 32.4824 65.0915 32.6738C65.2486 33.0885 67.0085 32.9928 67.2599 32.5462C67.3227 32.4186 67.1342 31.3658 66.8199 30.1854C66.3171 28.3032 66.2857 28.0161 66.6942 27.8566C66.9456 27.7609 67.2913 27.8566 67.417 28.0799C67.7312 28.5903 69.5854 35.6407 69.8368 37.2358C70.0253 38.3205 70.0567 38.3205 71.1566 38.1291C71.7852 38.0014 72.3194 37.8738 72.3508 37.8419C72.4765 37.7462 70.6224 30.6959 69.8996 28.5265C69.0826 26.0062 68.454 25.4001 66.8199 25.6234C65.6257 25.7829 65.5943 25.751 65.3743 24.6982C65.0601 22.9117 64.0545 20.8062 63.3631 20.4234C62.986 20.232 62.2318 20.1681 61.6661 20.2639C60.9957 20.3915 60.4719 19.8066 60.0948 18.5092C59.4977 16.4356 58.3978 15 57.4551 15C57.1408 15 56.3237 15.2871 55.6324 15.6061ZM60.7862 21.0933C61.6975 21.4123 59.6077 20.2639 59.1678 20.7424C58.9164 21.0295 58.445 22.111 58.3193 22.5895C58.0993 23.4509 60.4405 24.2197 59.6234 23.7093C59.1521 23.4222 58.7121 23.135 58.6492 23.0712C58.5864 23.0074 58.7435 22.7203 59.0264 22.4013C59.3406 22.0823 59.4663 21.7314 59.372 21.6037C59.2149 21.4442 59.4663 20.7424 59.6863 20.7424C59.7491 20.7424 60.2205 20.9019 60.7862 21.0933ZM64.4881 28.2107C64.8652 28.4659 65.3995 29.0976 64.9595 29.608C64.6767 29.927 66.3548 28.8041 66.3988 28.8041L64.9595 28.0799L65.5315 26.9474C64.6515 26.2455 63.5831 28.1437 64.1173 27.3142C64.4316 26.8676 64.5573 26.4848 64.463 26.4848C64.3373 26.4848 64.3373 26.3253 64.4316 26.1657C64.6201 25.8467 63.294 27.4131 64.4881 28.2107Z" fill="white" fill-opacity="0.89"/>
<path d="M17.1469 75.2812C15.9629 75.2812 15.0722 75.2706 14.4749 75.2492C13.8775 75.2279 13.4082 75.1852 13.0669 75.1212C12.7255 75.0572 12.4002 74.9559 12.0909 74.8172C11.5255 74.5719 11.0935 74.2092 10.7949 73.7292C10.5069 73.2492 10.3629 72.6946 10.3629 72.0652C10.3629 71.7026 10.4109 71.3292 10.5069 70.9452L11.1149 68.6092L13.0669 69.2012L12.4429 71.6172C12.3895 71.8092 12.3629 71.9639 12.3629 72.0812C12.3629 72.2412 12.4055 72.3746 12.4909 72.4812C12.5762 72.5772 12.7095 72.6626 12.8909 72.7372C13.1149 72.8439 13.4935 72.9186 14.0269 72.9612C14.5602 72.9932 15.6535 73.0092 17.3069 73.0092H17.3229C18.9335 73.0092 20.0002 72.9879 20.5229 72.9452C21.0455 72.9026 21.4349 72.8332 21.6909 72.7372C21.8722 72.6626 22.0055 72.5719 22.0909 72.4652C22.1762 72.3479 22.2189 72.1932 22.2189 72.0012C22.2189 71.8306 22.1869 71.6279 22.1229 71.3932L21.5149 69.1692L23.4669 68.5932L24.0749 70.8172C24.1815 71.2119 24.2349 71.6172 24.2349 72.0332C24.2349 72.6732 24.0855 73.2386 23.7869 73.7292C23.4989 74.2092 23.0722 74.5719 22.5069 74.8172C22.1975 74.9559 21.8615 75.0572 21.4989 75.1212C21.1362 75.1852 20.6455 75.2279 20.0269 75.2492C19.4189 75.2706 18.5175 75.2812 17.3229 75.2812H17.3069H17.1469ZM16.2349 76.5773H18.3469V78.6893H16.2349V76.5773ZM34.1183 75.2812C33.2329 75.2812 32.5609 75.0466 32.1023 74.5772C31.5476 75.0466 30.8543 75.2812 30.0223 75.2812H26.0383V73.0092H30.0223C30.4383 73.0092 30.7156 72.9399 30.8543 72.8012C31.0036 72.6519 31.0729 72.4546 31.0623 72.2092L30.7583 64.2892L32.7743 64.1932L33.0623 71.8252L33.0783 71.9532C33.0996 72.3692 33.1903 72.6519 33.3503 72.8012C33.5209 72.9399 33.7769 73.0092 34.1183 73.0092H34.4383L34.5663 74.1452L34.4383 75.2812H34.1183ZM27.1903 64.8172L28.5023 71.8732L26.5182 72.2732L25.2063 65.2332L27.1903 64.8172ZM34.2794 73.0092H35.3034C35.538 73.0092 35.7247 73.0039 35.8634 72.9932C35.5007 72.5452 35.3354 72.1079 35.3674 71.6812L35.4634 70.7372C35.5167 70.1932 35.6874 69.7026 35.9754 69.2652C36.274 68.8279 36.6527 68.4866 37.1114 68.2412C37.57 67.9959 38.066 67.8732 38.5994 67.8732C39.218 67.8732 39.7674 68.0386 40.2474 68.3692C40.738 68.6999 41.1114 69.1372 41.3674 69.6812C41.6234 70.2146 41.7354 70.7799 41.7034 71.3772L41.6554 72.1132C41.6447 72.4012 41.5167 72.6999 41.2714 73.0092H41.5434H42.7114L42.8394 74.1452L42.7114 75.2812H41.5434C40.5727 75.2812 39.5647 75.0839 38.5194 74.6892C37.9967 74.8706 37.4527 75.0146 36.8874 75.1212C36.3327 75.2279 35.8047 75.2812 35.3034 75.2812H34.2794V73.0092ZM35.9594 64.8972H37.8314V66.7692H35.9594V64.8972ZM37.3994 71.7772C37.6127 72.0759 37.9647 72.3266 38.4554 72.5292C39.1167 72.3159 39.506 72.0972 39.6234 71.8732L39.7034 71.3612C39.7354 71.0519 39.6447 70.7692 39.4314 70.5132C39.218 70.2572 38.9354 70.1292 38.5834 70.1292C38.2954 70.1292 38.0394 70.2252 37.8154 70.4172C37.5914 70.5986 37.4687 70.8332 37.4474 71.1212L37.3994 71.7772ZM39.2394 64.8972H41.1114V66.7692H39.2394V64.8972ZM42.545 73.0092H43.809C44.2677 73.0092 44.6037 72.9452 44.817 72.8172C45.041 72.6892 45.153 72.4652 45.153 72.1452C45.153 71.9852 45.121 71.7879 45.057 71.5532L44.417 69.1692L46.369 68.5932L47.009 70.9772C47.1157 71.3932 47.169 71.7986 47.169 72.1932C47.169 73.1319 46.8597 73.8839 46.241 74.4492C45.6223 75.0039 44.8117 75.2812 43.809 75.2812H42.545V73.0092ZM43.617 65.1852H45.713V67.2812H43.617V65.1852ZM49.1528 64.2892L51.1848 64.1932L51.6008 75.2492L49.5848 75.3453L49.1528 64.2892ZM61.7373 75.2812C61.5559 75.2812 61.4226 75.2759 61.3373 75.2652C61.3799 76.3106 61.1079 77.1213 60.5213 77.6973C59.9453 78.2839 59.0386 78.7479 57.8013 79.0893L56.8092 79.3773L56.2812 77.1853L57.2733 76.8973C58.0306 76.6946 58.5586 76.4866 58.8573 76.2733C59.1666 76.0599 59.3213 75.7346 59.3213 75.2973C59.3213 75.2226 59.3106 75.0999 59.2893 74.9292L58.6493 70.3372L60.6493 70.0332L60.7613 70.8972C60.7933 71.0359 60.8679 71.4519 60.9852 72.1452C61.0493 72.4972 61.1346 72.7319 61.2413 72.8492C61.3479 72.9559 61.5133 73.0092 61.7373 73.0092H61.8173L61.9453 74.1452L61.8173 75.2812H61.7373ZM58.4573 66.2892H60.5533V68.4012H58.4573V66.2892ZM61.7169 73.0092H64.5329C64.9489 73.0092 65.2315 72.9559 65.3809 72.8492C65.5302 72.7426 65.5942 72.5612 65.5729 72.3052V72.2732L65.3969 70.3052L67.4129 70.1132L67.5889 72.0812V72.1772C67.6315 72.5186 67.7169 72.7426 67.8449 72.8492C67.9835 72.9559 68.2449 73.0092 68.6289 73.0092L68.7569 74.1452L68.6289 75.2812C67.7969 75.2812 67.1249 75.0679 66.6129 74.6412C66.0689 75.0679 65.3755 75.2812 64.5329 75.2812H61.7169V73.0092ZM62.1969 76.7373H64.0689V78.5933H62.1969V76.7373ZM65.4769 76.7373H67.3489V78.5933H65.4769V76.7373ZM77.6669 75.2812C76.7602 75.2812 76.0455 74.9772 75.5229 74.3692C75.3202 74.6786 75.0589 74.9239 74.7389 75.1052C74.4295 75.2759 74.0989 75.3613 73.7469 75.3613C73.4269 75.3613 73.1069 75.2812 72.7869 75.1212L70.9949 74.1932C70.3655 74.9186 69.5815 75.2812 68.6429 75.2812H68.4669V73.0092H68.6429C68.9095 73.0092 69.1442 72.9559 69.3469 72.8492C69.5602 72.7319 69.7255 72.5772 69.8429 72.3852L71.0589 70.0012C71.2935 69.5426 71.6295 69.1852 72.0669 68.9292C72.5149 68.6732 72.9949 68.5452 73.5069 68.5452C73.9869 68.5452 74.4242 68.6519 74.8189 68.8652C75.3309 69.1426 75.7095 69.5052 75.9549 69.9532C76.2109 70.4012 76.3389 70.9132 76.3389 71.4892C76.3389 71.7772 76.3069 72.0759 76.2429 72.3852C76.3602 72.5772 76.5415 72.7319 76.7869 72.8492C77.0322 72.9559 77.3255 73.0092 77.6669 73.0092L77.7949 74.1452L77.6669 75.2812ZM74.0029 73.1852C74.0562 73.2172 74.0882 73.2332 74.0989 73.2332C74.1202 73.2332 74.1415 73.2119 74.1629 73.1693L74.3549 72.6892C74.4935 72.3799 74.5629 72.0812 74.5629 71.7932C74.5629 71.5586 74.5149 71.3559 74.4189 71.1852C74.3229 71.0039 74.1842 70.8706 74.0029 70.7852C73.8642 70.7106 73.7095 70.6732 73.5389 70.6732C73.3469 70.6732 73.1602 70.7319 72.9789 70.8492C72.8082 70.9559 72.6695 71.1212 72.5629 71.3452L72.1149 72.2412L74.0029 73.1852ZM86.5575 75.2812C85.6508 75.2812 84.9362 74.9772 84.4135 74.3692C84.2108 74.6786 83.9495 74.9239 83.6295 75.1052C83.3202 75.2759 82.9895 75.3613 82.6375 75.3613C82.3175 75.3613 81.9975 75.2812 81.6775 75.1212L79.8855 74.1932C79.2562 74.9186 78.4722 75.2812 77.5335 75.2812H77.3575V73.0092H77.5335C77.8002 73.0092 78.0348 72.9559 78.2375 72.8492C78.4508 72.7319 78.6162 72.5772 78.7335 72.3852L79.9495 70.0012C80.1842 69.5426 80.5202 69.1852 80.9575 68.9292C81.4055 68.6732 81.8855 68.5452 82.3975 68.5452C82.8775 68.5452 83.3148 68.6519 83.7095 68.8652C84.2215 69.1426 84.6002 69.5052 84.8455 69.9532C85.1015 70.4012 85.2295 70.9132 85.2295 71.4892C85.2295 71.7772 85.1975 72.0759 85.1335 72.3852C85.2508 72.5772 85.4322 72.7319 85.6775 72.8492C85.9228 72.9559 86.2162 73.0092 86.5575 73.0092L86.6855 74.1452L86.5575 75.2812ZM82.8935 73.1852C82.9468 73.2172 82.9788 73.2332 82.9895 73.2332C83.0108 73.2332 83.0322 73.2119 83.0535 73.1693L83.2455 72.6892C83.3842 72.3799 83.4535 72.0812 83.4535 71.7932C83.4535 71.5586 83.4055 71.3559 83.3095 71.1852C83.2135 71.0039 83.0748 70.8706 82.8935 70.7852C82.7548 70.7106 82.6002 70.6732 82.4295 70.6732C82.2375 70.6732 82.0508 70.7319 81.8695 70.8492C81.6988 70.9559 81.5602 71.1212 81.4535 71.3452L81.0055 72.2412L82.8935 73.1852ZM95.4481 75.2812C94.5415 75.2812 93.8268 74.9772 93.3041 74.3692C93.1015 74.6786 92.8401 74.9239 92.5201 75.1052C92.2108 75.2759 91.8801 75.3613 91.5281 75.3613C91.2081 75.3613 90.8881 75.2812 90.5681 75.1212L88.7761 74.1932C88.1468 74.9186 87.3628 75.2812 86.4241 75.2812H86.2481V73.0092H86.4241C86.6908 73.0092 86.9255 72.9559 87.1281 72.8492C87.3415 72.7319 87.5068 72.5772 87.6241 72.3852L88.8401 70.0012C89.0748 69.5426 89.4108 69.1852 89.8481 68.9292C90.2961 68.6732 90.7761 68.5452 91.2881 68.5452C91.7681 68.5452 92.2055 68.6519 92.6001 68.8652C93.1121 69.1426 93.4908 69.5052 93.7361 69.9532C93.9921 70.4012 94.1201 70.9132 94.1201 71.4892C94.1201 71.7772 94.0881 72.0759 94.0241 72.3852C94.1415 72.5772 94.3228 72.7319 94.5681 72.8492C94.8135 72.9559 95.1068 73.0092 95.4481 73.0092L95.5761 74.1452L95.4481 75.2812ZM91.7841 73.1852C91.8375 73.2172 91.8695 73.2332 91.8801 73.2332C91.9015 73.2332 91.9228 73.2119 91.9441 73.1693L92.1361 72.6892C92.2748 72.3799 92.3441 72.0812 92.3441 71.7932C92.3441 71.5586 92.2961 71.3559 92.2001 71.1852C92.1041 71.0039 91.9655 70.8706 91.7841 70.7852C91.6455 70.7106 91.4908 70.6732 91.3201 70.6732C91.1281 70.6732 90.9415 70.7319 90.7601 70.8492C90.5895 70.9559 90.4508 71.1212 90.3441 71.3452L89.8961 72.2412L91.7841 73.1852ZM95.1387 73.0092H96.1148H96.4828C95.9921 72.4226 95.7467 71.7399 95.7467 70.9612C95.7467 70.4812 95.8534 70.0119 96.0668 69.5532C96.3334 68.9879 96.7174 68.5452 97.2188 68.2252L97.8748 66.8172L103.523 69.7932C104.045 70.0599 104.456 70.4546 104.755 70.9772C105.053 71.4892 105.203 72.0386 105.203 72.6252C105.203 73.0732 105.107 73.5052 104.915 73.9212C104.648 74.4759 104.275 74.9079 103.795 75.2172C103.315 75.5266 102.797 75.6813 102.243 75.6813C101.795 75.6813 101.384 75.5906 101.011 75.4093L99.2828 74.6092C98.3334 75.0572 97.2774 75.2812 96.1148 75.2812H95.1387V73.0092ZM97.9868 70.4492C97.9014 70.5879 97.8588 70.7532 97.8588 70.9452C97.8588 71.1159 97.9068 71.2759 98.0028 71.4252C98.0988 71.5746 98.2428 71.6972 98.4348 71.7932L99.2668 72.2092C99.5014 71.9959 99.6828 71.7399 99.8108 71.4412C99.8748 71.2919 99.9068 71.1479 99.9068 71.0092C99.9068 70.8279 99.8588 70.6572 99.7628 70.4972C99.6774 70.3266 99.5494 70.1932 99.3788 70.0972L99.3148 70.0652C99.1654 69.9906 99.0054 69.9532 98.8348 69.9532C98.6534 69.9532 98.4881 70.0012 98.3388 70.0972C98.1894 70.1826 98.0721 70.2999 97.9868 70.4492ZM101.827 73.4732C101.976 73.5372 102.125 73.5692 102.275 73.5692C102.456 73.5692 102.621 73.5266 102.771 73.4412C102.931 73.3452 103.048 73.2172 103.123 73.0572C103.187 72.9292 103.219 72.7959 103.219 72.6572C103.219 72.4866 103.165 72.3212 103.059 72.1612C102.963 72.0012 102.819 71.8732 102.627 71.7772L101.907 71.4092C101.853 71.7826 101.763 72.1026 101.635 72.3692C101.528 72.6039 101.373 72.8652 101.171 73.1532L101.827 73.4732Z" fill="#525252"/>
</svg>
