<svg width="20" height="21" viewBox="0 0 20 21" fill="none" xmlns="http://www.w3.org/2000/svg">
<path d="M4.14117 5.57819L3.42122 10.8295C3.36541 11.2376 3.3973 11.6523 3.51523 12.047C3.63315 12.4417 3.83431 12.8064 4.10486 13.117C4.37542 13.4275 4.70914 13.6767 5.0839 13.8476C5.45866 14.0186 5.86579 14.1076 6.2777 14.1083H13.3212C13.7335 14.1089 14.1412 14.0212 14.5166 13.8507C14.8919 13.6802 15.2263 13.4309 15.4971 13.12C15.7679 12.8091 15.969 12.4438 16.0864 12.0485C16.2038 11.6533 16.2348 11.2379 16.1777 10.8295L15.4578 5.57819C15.3649 4.88663 15.024 4.25204 14.4986 3.79286C13.9732 3.33367 13.299 3.08079 12.6013 3.08132H7.0133C6.3133 3.07866 5.6363 3.33057 5.10798 3.7898C4.57965 4.24902 4.23602 4.88464 4.14117 5.57819Z" stroke="#F87A08" stroke-width="0.75" stroke-linecap="round" stroke-linejoin="round"/>
<path d="M6.31609 14.1082L4.00742 17.4813" stroke="#F87A08" stroke-width="0.75" stroke-linecap="round" stroke-linejoin="round"/>
<path d="M13.2582 14.1082L15.567 17.4813" stroke="#F87A08" stroke-width="0.75" stroke-linecap="round" stroke-linejoin="round"/>
<path d="M14.776 16.323H4.79767" stroke="#F87A08" stroke-width="0.75" stroke-linecap="round" stroke-linejoin="round"/>
<path d="M12.491 8.5909H7.01268C6.892 8.59444 6.77231 8.57031 6.66264 8.51983C6.55298 8.46935 6.45641 8.39369 6.38062 8.29971C6.30484 8.20574 6.25157 8.09583 6.22548 7.97795C6.19937 7.86008 6.20104 7.73746 6.23006 7.62027L6.52737 6.12535C6.55737 5.94017 6.65313 5.77217 6.79677 5.65151C6.94041 5.53084 7.12239 5.46567 7.30998 5.46808H12.17C12.3576 5.46567 12.5399 5.53084 12.6836 5.65151C12.8272 5.77217 12.9226 5.94017 12.9526 6.12535L13.2503 7.62027C13.2788 7.73551 13.2805 7.85576 13.2557 7.97184C13.2308 8.08792 13.1802 8.19704 13.107 8.29055C13.0338 8.38404 12.9401 8.45937 12.8334 8.51142C12.7267 8.56347 12.6097 8.59081 12.491 8.5909Z" stroke="#F87A08" stroke-width="0.75" stroke-linecap="round" stroke-linejoin="round"/>
<path d="M9.64496 11.1652V11.2036M9.80056 11.1734C9.80056 11.2599 9.7304 11.33 9.644 11.33C9.55752 11.33 9.48752 11.2599 9.48752 11.1734C9.48752 11.087 9.55752 11.017 9.644 11.017C9.7304 11.017 9.80056 11.087 9.80056 11.1734Z" stroke="#F87A08" stroke-width="0.75" stroke-linecap="round" stroke-linejoin="round"/>
</svg>
